<?xml version="1.0" encoding="utf-8"?>
<!-- Generator: Adobe Illustrator 16.0.4, SVG Export Plug-In . SVG Version: 6.00 Build 0)  -->
<!DOCTYPE svg PUBLIC "-//W3C//DTD SVG 1.1//EN" "http://www.w3.org/Graphics/SVG/1.1/DTD/svg11.dtd">
<svg version="1.1" id="Layer_1" xmlns="http://www.w3.org/2000/svg" xmlns:xlink="http://www.w3.org/1999/xlink" x="0px" y="0px"
	 width="61.427px" height="59.184px" viewBox="117.864 130.379 61.427 59.184"
	 enable-background="new 117.864 130.379 61.427 59.184" xml:space="preserve">
<polygon fill="#808080" points="138.835,154.253 148.74,159.971 158.644,154.252 148.74,148.534 "/>
<polygon fill="#808080" points="138.673,154.415 138.673,165.851 148.578,171.569 148.578,171.569 148.578,160.133 "/>
<polygon fill="#808080" points="158.482,154.253 158.482,165.689 158.482,165.689 148.578,171.407 148.578,159.971 158.482,154.252 
	"/>
<line fill="none" stroke="#000000" stroke-width="2" stroke-linecap="round" stroke-linejoin="bevel" x1="168.386" y1="148.534" x2="168.386" y2="137.098"/>
<line fill="none" stroke="#000000" stroke-width="2" stroke-linecap="round" stroke-linejoin="bevel" x1="168.386" y1="159.971" x2="168.386" y2="159.971"/>
<line fill="none" stroke="#000000" stroke-width="2" stroke-linecap="round" stroke-linejoin="bevel" x1="168.386" y1="148.534" x2="168.386" y2="148.534"/>
<line fill="none" stroke="#000000" stroke-width="2" stroke-linecap="round" stroke-linejoin="bevel" x1="168.386" y1="182.845" x2="168.386" y2="182.844"/>
<line fill="none" stroke="#000000" stroke-width="2" stroke-linecap="round" stroke-linejoin="bevel" x1="168.386" y1="171.407" x2="168.386" y2="171.407"/>
<line fill="none" stroke="#000000" stroke-width="2" stroke-linecap="round" stroke-linejoin="bevel" x1="168.386" y1="137.098" x2="168.386" y2="137.098"/>
<line fill="none" stroke="#000000" stroke-width="2" stroke-linecap="round" stroke-linejoin="bevel" x1="168.386" y1="182.844" x2="168.386" y2="171.407"/>
<line fill="none" stroke="#000000" stroke-width="2" stroke-linecap="round" stroke-linejoin="bevel" x1="168.386" y1="159.971" x2="168.386" y2="171.407"/>
<line fill="none" stroke="#000000" stroke-width="2" stroke-linecap="round" stroke-linejoin="bevel" x1="158.482" y1="154.253" x2="158.482" y2="165.689"/>
<line fill="none" stroke="#000000" stroke-width="2" stroke-linecap="round" stroke-linejoin="bevel" x1="158.482" y1="188.562" x2="158.482" y2="177.126"/>
<line fill="none" stroke="#000000" stroke-width="2" stroke-linecap="round" stroke-linejoin="bevel" x1="158.482" y1="154.252" x2="158.482" y2="142.816"/>
<line fill="none" stroke="#000000" stroke-width="2" stroke-linecap="round" stroke-linejoin="bevel" x1="158.482" y1="188.562" x2="158.482" y2="188.562"/>
<line fill="none" stroke="#000000" stroke-width="2" stroke-linecap="round" stroke-linejoin="bevel" x1="158.482" y1="142.816" x2="158.482" y2="142.816"/>
<line fill="none" stroke="#000000" stroke-width="2" stroke-linecap="round" stroke-linejoin="bevel" x1="158.482" y1="154.253" x2="158.482" y2="154.252"/>
<line fill="none" stroke="#000000" stroke-width="2" stroke-linecap="round" stroke-linejoin="bevel" x1="158.482" y1="177.126" x2="158.482" y2="177.126"/>
<line fill="none" stroke="#000000" stroke-width="2" stroke-linecap="round" stroke-linejoin="bevel" x1="158.482" y1="131.379" x2="158.482" y2="131.379"/>
<line fill="none" stroke="#000000" stroke-width="2" stroke-linecap="round" stroke-linejoin="bevel" x1="158.482" y1="165.689" x2="158.482" y2="165.689"/>
<line fill="none" stroke="#000000" stroke-width="2" stroke-linecap="round" stroke-linejoin="bevel" x1="148.578" y1="137.098" x2="148.578" y2="137.098"/>
<line fill="none" stroke="#000000" stroke-width="2" stroke-linecap="round" stroke-linejoin="bevel" x1="148.578" y1="137.098" x2="148.578" y2="148.534"/>
<line fill="none" stroke="#000000" stroke-width="2" stroke-linecap="round" stroke-linejoin="bevel" x1="148.578" y1="182.844" x2="148.578" y2="171.407"/>
<line fill="none" stroke="#000000" stroke-width="2" stroke-linecap="round" stroke-linejoin="bevel" x1="148.578" y1="148.534" x2="148.578" y2="148.535"/>
<line fill="none" stroke="#000000" stroke-width="2" stroke-linecap="round" stroke-linejoin="bevel" x1="148.578" y1="171.407" x2="148.578" y2="171.407"/>
<line fill="none" stroke="#FFFFFF" stroke-width="2" stroke-linecap="round" stroke-linejoin="bevel" x1="148.578" y1="171.407" x2="148.578" y2="159.971"/>
<line fill="none" stroke="#000000" stroke-width="2" stroke-linecap="round" stroke-linejoin="bevel" x1="148.578" y1="159.971" x2="148.578" y2="159.971"/>
<line fill="none" stroke="#000000" stroke-width="2" stroke-linecap="round" stroke-linejoin="bevel" x1="148.578" y1="182.845" x2="148.578" y2="182.844"/>
<line fill="none" stroke="#000000" stroke-width="2" stroke-linecap="round" stroke-linejoin="bevel" x1="138.673" y1="177.126" x2="138.673" y2="188.562"/>
<line fill="none" stroke="#000000" stroke-width="2" stroke-linecap="round" stroke-linejoin="bevel" x1="138.673" y1="154.253" x2="138.673" y2="165.689"/>
<line fill="none" stroke="#000000" stroke-width="2" stroke-linecap="round" stroke-linejoin="bevel" x1="138.673" y1="154.253" x2="138.673" y2="154.253"/>
<line fill="none" stroke="#000000" stroke-width="2" stroke-linecap="round" stroke-linejoin="bevel" x1="138.673" y1="165.689" x2="138.673" y2="165.689"/>
<line fill="none" stroke="#000000" stroke-width="2" stroke-linecap="round" stroke-linejoin="bevel" x1="138.673" y1="142.816" x2="138.673" y2="142.816"/>
<line fill="none" stroke="#000000" stroke-width="2" stroke-linecap="round" stroke-linejoin="bevel" x1="138.673" y1="177.126" x2="138.673" y2="177.126"/>
<line fill="none" stroke="#000000" stroke-width="2" stroke-linecap="round" stroke-linejoin="bevel" x1="138.673" y1="188.563" x2="138.673" y2="188.562"/>
<line fill="none" stroke="#000000" stroke-width="2" stroke-linecap="round" stroke-linejoin="bevel" x1="128.769" y1="171.407" x2="128.769" y2="182.844"/>
<line fill="none" stroke="#000000" stroke-width="2" stroke-linecap="round" stroke-linejoin="bevel" x1="128.769" y1="148.534" x2="128.769" y2="159.971"/>
<line fill="none" stroke="#000000" stroke-width="2" stroke-linecap="round" stroke-linejoin="bevel" x1="128.769" y1="182.845" x2="128.769" y2="182.844"/>
<line fill="none" stroke="#000000" stroke-width="2" stroke-linecap="round" stroke-linejoin="bevel" x1="128.769" y1="171.407" x2="128.769" y2="171.407"/>
<line fill="none" stroke="#000000" stroke-width="2" stroke-linecap="round" stroke-linejoin="bevel" x1="128.769" y1="159.971" x2="128.769" y2="159.971"/>
<line fill="none" stroke="#000000" stroke-width="2" stroke-linecap="round" stroke-linejoin="bevel" x1="118.864" y1="177.126" x2="118.864" y2="177.126"/>
<line fill="none" stroke="#000000" stroke-width="2" stroke-linecap="round" stroke-linejoin="bevel" x1="118.864" y1="165.689" x2="118.864" y2="177.126"/>
<line fill="none" stroke="#000000" stroke-width="2" stroke-linecap="round" stroke-linejoin="bevel" x1="178.291" y1="165.689" x2="178.291" y2="154.252"/>
<line fill="none" stroke="#000000" stroke-width="2" stroke-linecap="round" stroke-linejoin="bevel" x1="178.291" y1="165.689" x2="178.291" y2="177.126"/>
<line fill="none" stroke="#000000" stroke-width="2" stroke-linecap="round" stroke-linejoin="bevel" x1="158.482" y1="188.562" x2="158.482" y2="188.562"/>
<line fill="none" stroke="#000000" stroke-width="2" stroke-linecap="round" stroke-linejoin="bevel" x1="178.291" y1="177.126" x2="168.386" y2="182.844"/>
<line fill="none" stroke="#000000" stroke-width="2" stroke-linecap="round" stroke-linejoin="bevel" x1="158.482" y1="188.562" x2="168.386" y2="182.845"/>
<line fill="none" stroke="#000000" stroke-width="2" stroke-linecap="round" stroke-linejoin="bevel" x1="168.386" y1="182.845" x2="168.386" y2="182.844"/>
<line fill="none" stroke="#000000" stroke-width="2" stroke-linecap="round" stroke-linejoin="bevel" x1="168.386" y1="171.407" x2="178.291" y2="165.689"/>
<line fill="none" stroke="#000000" stroke-width="2" stroke-linecap="round" stroke-linejoin="bevel" x1="158.482" y1="177.126" x2="168.386" y2="171.407"/>
<line fill="none" stroke="#000000" stroke-width="2" stroke-linecap="round" stroke-linejoin="bevel" x1="158.482" y1="177.126" x2="158.482" y2="177.126"/>
<line fill="none" stroke="#000000" stroke-width="2" stroke-linecap="round" stroke-linejoin="bevel" x1="138.673" y1="188.562" x2="148.578" y2="182.844"/>
<line fill="none" stroke="#000000" stroke-width="2" stroke-linecap="round" stroke-linejoin="bevel" x1="138.673" y1="188.562" x2="138.673" y2="188.562"/>
<line fill="none" stroke="#000000" stroke-width="2" stroke-linecap="round" stroke-linejoin="bevel" x1="168.386" y1="171.407" x2="168.386" y2="171.407"/>
<line fill="none" stroke="#000000" stroke-width="2" stroke-linecap="round" stroke-linejoin="bevel" x1="148.578" y1="182.844" x2="148.578" y2="182.844"/>
<line fill="none" stroke="#000000" stroke-width="2" stroke-linecap="round" stroke-linejoin="bevel" x1="138.673" y1="177.126" x2="138.673" y2="177.126"/>
<line fill="none" stroke="#000000" stroke-width="2" stroke-linecap="round" stroke-linejoin="bevel" x1="148.578" y1="171.407" x2="148.578" y2="171.407"/>
<line fill="none" stroke="#000000" stroke-width="2" stroke-linecap="round" stroke-linejoin="bevel" x1="128.768" y1="182.844" x2="128.769" y2="182.844"/>
<line fill="none" stroke="#000000" stroke-width="2" stroke-linecap="round" stroke-linejoin="bevel" x1="158.482" y1="165.689" x2="158.482" y2="165.689"/>
<line fill="none" stroke="#000000" stroke-width="2" stroke-linecap="round" stroke-linejoin="bevel" x1="138.673" y1="177.126" x2="148.578" y2="171.407"/>
<line fill="none" stroke="#000000" stroke-width="2" stroke-linecap="round" stroke-linejoin="bevel" x1="168.386" y1="159.971" x2="168.386" y2="159.971"/>
<line fill="none" stroke="#000000" stroke-width="2" stroke-linecap="round" stroke-linejoin="bevel" x1="148.578" y1="171.407" x2="158.482" y2="165.689"/>
<line fill="none" stroke="#000000" stroke-width="2" stroke-linecap="round" stroke-linejoin="bevel" x1="168.386" y1="159.971" x2="178.291" y2="154.252"/>
<line fill="none" stroke="#000000" stroke-width="2" stroke-linecap="round" stroke-linejoin="bevel" x1="118.864" y1="177.126" x2="118.864" y2="177.126"/>
<line fill="none" stroke="#000000" stroke-width="2" stroke-linecap="round" stroke-linejoin="bevel" x1="128.769" y1="171.407" x2="138.673" y2="165.689"/>
<line fill="none" stroke="#000000" stroke-width="2" stroke-linecap="round" stroke-linejoin="bevel" x1="138.673" y1="165.689" x2="138.673" y2="165.689"/>
<line fill="none" stroke="#000000" stroke-width="2" stroke-linecap="round" stroke-linejoin="bevel" x1="128.769" y1="171.407" x2="128.769" y2="171.407"/>
<line fill="none" stroke="#000000" stroke-width="2" stroke-linecap="round" stroke-linejoin="bevel" x1="168.386" y1="148.534" x2="168.386" y2="148.534"/>
<line fill="none" stroke="#000000" stroke-width="2" stroke-linecap="round" stroke-linejoin="bevel" x1="158.482" y1="154.252" x2="158.482" y2="154.252"/>
<line fill="none" stroke="#000000" stroke-width="2" stroke-linecap="round" stroke-linejoin="bevel" x1="168.386" y1="148.534" x2="158.482" y2="154.252"/>
<line fill="none" stroke="#FFFFFF" stroke-width="2" stroke-linecap="round" stroke-linejoin="bevel" x1="148.578" y1="159.971" x2="158.482" y2="154.252"/>
<line fill="none" stroke="#000000" stroke-width="2" stroke-linecap="round" stroke-linejoin="bevel" x1="148.578" y1="159.971" x2="148.578" y2="159.971"/>
<line fill="none" stroke="#000000" stroke-width="2" stroke-linecap="round" stroke-linejoin="bevel" x1="148.578" y1="148.534" x2="148.578" y2="148.534"/>
<line fill="none" stroke="#000000" stroke-width="2" stroke-linecap="round" stroke-linejoin="bevel" x1="118.864" y1="165.689" x2="128.769" y2="159.971"/>
<line fill="none" stroke="#000000" stroke-width="2" stroke-linecap="round" stroke-linejoin="bevel" x1="158.482" y1="142.816" x2="158.482" y2="142.816"/>
<line fill="none" stroke="#000000" stroke-width="2" stroke-linecap="round" stroke-linejoin="bevel" x1="148.578" y1="148.534" x2="138.673" y2="154.253"/>
<line fill="none" stroke="#000000" stroke-width="2" stroke-linecap="round" stroke-linejoin="bevel" x1="128.769" y1="159.971" x2="128.769" y2="159.971"/>
<line fill="none" stroke="#000000" stroke-width="2" stroke-linecap="round" stroke-linejoin="bevel" x1="168.387" y1="137.098" x2="168.386" y2="137.098"/>
<line fill="none" stroke="#000000" stroke-width="2" stroke-linecap="round" stroke-linejoin="bevel" x1="168.386" y1="137.098" x2="158.482" y2="142.816"/>
<line fill="none" stroke="#000000" stroke-width="2" stroke-linecap="round" stroke-linejoin="bevel" x1="138.673" y1="154.253" x2="138.673" y2="154.253"/>
<line fill="none" stroke="#000000" stroke-width="2" stroke-linecap="round" stroke-linejoin="bevel" x1="138.673" y1="142.816" x2="128.769" y2="148.534"/>
<line fill="none" stroke="#000000" stroke-width="2" stroke-linecap="round" stroke-linejoin="bevel" x1="148.578" y1="137.098" x2="148.578" y2="137.098"/>
<line fill="none" stroke="#000000" stroke-width="2" stroke-linecap="round" stroke-linejoin="bevel" x1="158.482" y1="131.379" x2="148.578" y2="137.098"/>
<line fill="none" stroke="#000000" stroke-width="2" stroke-linecap="round" stroke-linejoin="bevel" x1="138.673" y1="142.816" x2="138.673" y2="142.816"/>
<line fill="none" stroke="#000000" stroke-width="2" stroke-linecap="round" stroke-linejoin="bevel" x1="158.482" y1="131.379" x2="158.482" y2="131.379"/>
<line fill="none" stroke="#000000" stroke-width="2" stroke-linecap="round" stroke-linejoin="bevel" x1="158.482" y1="142.816" x2="148.578" y2="137.098"/>
<line fill="none" stroke="#000000" stroke-width="2" stroke-linecap="round" stroke-linejoin="bevel" x1="158.482" y1="142.816" x2="158.482" y2="142.816"/>
<line fill="none" stroke="#000000" stroke-width="2" stroke-linecap="round" stroke-linejoin="bevel" x1="178.291" y1="154.252" x2="168.386" y2="148.534"/>
<line fill="none" stroke="#000000" stroke-width="2" stroke-linecap="round" stroke-linejoin="bevel" x1="148.578" y1="137.098" x2="148.578" y2="137.098"/>
<line fill="none" stroke="#000000" stroke-width="2" stroke-linecap="round" stroke-linejoin="bevel" x1="168.386" y1="148.534" x2="168.386" y2="148.534"/>
<line fill="none" stroke="#000000" stroke-width="2" stroke-linecap="round" stroke-linejoin="bevel" x1="138.673" y1="142.816" x2="138.673" y2="142.816"/>
<line fill="none" stroke="#000000" stroke-width="2" stroke-linecap="round" stroke-linejoin="bevel" x1="148.578" y1="148.534" x2="148.578" y2="148.535"/>
<line fill="none" stroke="#000000" stroke-width="2" stroke-linecap="round" stroke-linejoin="bevel" x1="148.578" y1="148.534" x2="138.673" y2="142.816"/>
<line fill="none" stroke="#000000" stroke-width="2" stroke-linecap="round" stroke-linejoin="bevel" x1="168.386" y1="159.971" x2="158.482" y2="154.253"/>
<line fill="none" stroke="#000000" stroke-width="2" stroke-linecap="round" stroke-linejoin="bevel" x1="168.386" y1="159.971" x2="168.386" y2="159.971"/>
<line fill="none" stroke="#000000" stroke-width="2" stroke-linecap="round" stroke-linejoin="bevel" x1="158.482" y1="154.253" x2="158.482" y2="154.252"/>
<line fill="none" stroke="#000000" stroke-width="2" stroke-linecap="round" stroke-linejoin="bevel" x1="158.482" y1="154.252" x2="148.578" y2="148.535"/>
<line fill="none" stroke="#000000" stroke-width="2" stroke-linecap="round" stroke-linejoin="bevel" x1="148.578" y1="159.971" x2="148.578" y2="159.971"/>
<line fill="none" stroke="#FFFFFF" stroke-width="2" stroke-linecap="round" stroke-linejoin="bevel" x1="148.578" y1="159.971" x2="138.673" y2="154.253"/>
<line fill="none" stroke="#000000" stroke-width="2" stroke-linecap="round" stroke-linejoin="bevel" x1="138.673" y1="154.253" x2="138.673" y2="154.253"/>
<line fill="none" stroke="#000000" stroke-width="2" stroke-linecap="round" stroke-linejoin="bevel" x1="168.386" y1="171.407" x2="158.482" y2="165.689"/>
<line fill="none" stroke="#000000" stroke-width="2" stroke-linecap="round" stroke-linejoin="bevel" x1="138.673" y1="154.253" x2="128.769" y2="148.534"/>
<line fill="none" stroke="#000000" stroke-width="2" stroke-linecap="round" stroke-linejoin="bevel" x1="158.482" y1="165.689" x2="158.482" y2="165.689"/>
<line fill="none" stroke="#000000" stroke-width="2" stroke-linecap="round" stroke-linejoin="bevel" x1="168.386" y1="171.407" x2="168.386" y2="171.407"/>
<line fill="none" stroke="#000000" stroke-width="2" stroke-linecap="round" stroke-linejoin="bevel" x1="168.386" y1="182.844" x2="168.386" y2="182.844"/>
<path fill="none" stroke="#000000" stroke-width="2" stroke-linecap="round" stroke-linejoin="bevel" d="M128.769,159.971"/>
<line fill="none" stroke="#000000" stroke-width="2" stroke-linecap="round" stroke-linejoin="bevel" x1="128.769" y1="159.971" x2="128.769" y2="159.971"/>
<line fill="none" stroke="#000000" stroke-width="2" stroke-linecap="round" stroke-linejoin="bevel" x1="138.673" y1="165.689" x2="138.673" y2="165.689"/>
<line fill="none" stroke="#000000" stroke-width="2" stroke-linecap="round" stroke-linejoin="bevel" x1="158.482" y1="177.126" x2="158.482" y2="177.126"/>
<line fill="none" stroke="#000000" stroke-width="2" stroke-linecap="round" stroke-linejoin="bevel" x1="128.769" y1="159.971" x2="138.673" y2="165.689"/>
<line fill="none" stroke="#000000" stroke-width="2" stroke-linecap="round" stroke-linejoin="bevel" x1="148.578" y1="171.407" x2="138.673" y2="165.689"/>
<line fill="none" stroke="#000000" stroke-width="2" stroke-linecap="round" stroke-linejoin="bevel" x1="158.482" y1="177.126" x2="148.578" y2="171.407"/>
<line fill="none" stroke="#000000" stroke-width="2" stroke-linecap="round" stroke-linejoin="bevel" x1="148.578" y1="171.407" x2="148.578" y2="171.407"/>
<line fill="none" stroke="#000000" stroke-width="2" stroke-linecap="round" stroke-linejoin="bevel" x1="138.673" y1="177.126" x2="138.673" y2="177.126"/>
<line fill="none" stroke="#000000" stroke-width="2" stroke-linecap="round" stroke-linejoin="bevel" x1="128.769" y1="171.407" x2="128.769" y2="171.407"/>
<line fill="none" stroke="#000000" stroke-width="2" stroke-linecap="round" stroke-linejoin="bevel" x1="118.864" y1="165.689" x2="128.769" y2="171.407"/>
<line fill="none" stroke="#000000" stroke-width="2" stroke-linecap="round" stroke-linejoin="bevel" x1="148.578" y1="182.845" x2="148.578" y2="182.844"/>
<line fill="none" stroke="#000000" stroke-width="2" stroke-linecap="round" stroke-linejoin="bevel" x1="158.482" y1="188.562" x2="158.482" y2="188.562"/>
<line fill="none" stroke="#000000" stroke-width="2" stroke-linecap="round" stroke-linejoin="bevel" x1="138.673" y1="177.126" x2="128.769" y2="171.407"/>
<line fill="none" stroke="#000000" stroke-width="2" stroke-linecap="round" stroke-linejoin="bevel" x1="158.482" y1="188.562" x2="148.578" y2="182.845"/>
<line fill="none" stroke="#000000" stroke-width="2" stroke-linecap="round" stroke-linejoin="bevel" x1="128.768" y1="182.844" x2="128.769" y2="182.845"/>
<line fill="none" stroke="#000000" stroke-width="2" stroke-linecap="round" stroke-linejoin="bevel" x1="138.673" y1="188.562" x2="138.673" y2="188.563"/>
<line fill="none" stroke="#000000" stroke-width="2" stroke-linecap="round" stroke-linejoin="bevel" x1="128.768" y1="182.844" x2="118.864" y2="177.126"/>
<line fill="none" stroke="#000000" stroke-width="2" stroke-linecap="round" stroke-linejoin="bevel" x1="138.673" y1="188.562" x2="128.769" y2="182.845"/>
<line fill="none" stroke="#000000" stroke-width="2" stroke-linecap="round" stroke-linejoin="bevel" x1="118.864" y1="177.126" x2="118.864" y2="177.126"/>
<line fill="none" stroke="#000000" stroke-width="2" stroke-linecap="round" stroke-linejoin="bevel" x1="168.387" y1="137.098" x2="168.386" y2="137.098"/>
<line fill="none" stroke="#000000" stroke-width="2" stroke-linecap="round" stroke-linejoin="bevel" x1="158.482" y1="131.379" x2="158.482" y2="131.379"/>
<line fill="none" stroke="#000000" stroke-width="2" stroke-linecap="round" stroke-linejoin="bevel" x1="158.482" y1="131.379" x2="168.386" y2="137.098"/>
</svg>
