<?xml version="1.0" encoding="utf-8"?>
<!-- Generator: Adobe Illustrator 16.0.4, SVG Export Plug-In . SVG Version: 6.00 Build 0)  -->
<!DOCTYPE svg PUBLIC "-//W3C//DTD SVG 1.1 Tiny//EN" "http://www.w3.org/Graphics/SVG/1.1/DTD/svg11-tiny.dtd">
<svg version="1.1" baseProfile="tiny" id="Layer_1" xmlns="http://www.w3.org/2000/svg" xmlns:xlink="http://www.w3.org/1999/xlink"
	 x="0px" y="0px" width="27.661px" height="32.619px" viewBox="16.814 19.829 27.661 32.619" xml:space="preserve">
<g>
	<g>
		<polygon fill="#010101" points="24.385,23.972 28.522,28.212 28.523,28.212 28.524,25.429 28.521,25.429 23.082,19.829 
			17.642,25.429 17.639,25.429 17.639,28.198 21.763,23.972 21.756,26.916 21.759,26.916 21.759,46.552 24.403,46.552 
			24.403,27.662 		"/>
		<polygon fill="#010101" points="39.512,23.972 43.649,28.212 43.651,28.212 43.651,25.429 43.648,25.429 38.208,19.829 
			32.769,25.429 32.766,25.429 32.766,28.198 36.889,23.972 36.883,26.916 36.886,26.916 36.886,46.552 39.531,46.552 
			39.531,27.662 		"/>
	</g>
	<rect x="16.814" y="49.423" fill="#010101" width="27.661" height="3.025"/>
</g>
</svg>
