<?xml version="1.0" encoding="iso-8859-1"?>
<!-- Generator: Adobe Illustrator 16.0.0, SVG Export Plug-In . SVG Version: 6.00 Build 0)  -->
<!DOCTYPE svg PUBLIC "-//W3C//DTD SVG 1.1//EN" "http://www.w3.org/Graphics/SVG/1.1/DTD/svg11.dtd">
<svg version="1.1" xmlns="http://www.w3.org/2000/svg" xmlns:xlink="http://www.w3.org/1999/xlink" x="0px" y="0px"
	 width="29.812px" height="29.688px" viewBox="0 0 29.812 29.688" style="enable-background:new 0 0 29.812 29.688;"
	 xml:space="preserve">
<g id="eyedropper">
	<path d="M28.461,1.343c-1.803-1.79-4.721-1.79-6.523,0l-2.939,2.92c-0.742-0.738-1.949-0.738-2.693,0.001
		c-0.742,0.738-0.742,1.937,0.002,2.676l0.059,0.059L1.424,21.845C1.2,22.068,1.101,22.39,1.164,22.699l0.266,1.32l-0.546,0.544
		c-1.178,1.169-1.178,3.072,0,4.244c0.57,0.568,1.328,0.881,2.136,0.881s1.565-0.312,2.136-0.879l0.547-0.545l1.33,0.264
		c0.312,0.063,0.634-0.034,0.859-0.258l14.941-14.848c0.371,0.367,0.857,0.552,1.344,0.552s0.975-0.185,1.346-0.555
		c0.744-0.739,0.744-1.937,0-2.676l2.939-2.921C30.262,6.034,30.262,3.133,28.461,1.343z M11.431,21.688H3.883l13.3-13.021
		l3.773,3.651L11.431,21.688z"/>
</g>
<g id="Layer_1">
</g>
</svg>
