<?xml version="1.0" encoding="iso-8859-1"?>
<!-- Generator: Adobe Illustrator 16.0.0, SVG Export Plug-In . SVG Version: 6.00 Build 0)  -->
<!DOCTYPE svg PUBLIC "-//W3C//DTD SVG 1.1//EN" "http://www.w3.org/Graphics/SVG/1.1/DTD/svg11.dtd">
<svg version="1.1" xmlns="http://www.w3.org/2000/svg" xmlns:xlink="http://www.w3.org/1999/xlink" x="0px" y="0px" width="30px"
	 height="30px" viewBox="0 0 30 30" style="enable-background:new 0 0 30 30;" xml:space="preserve">
<g id="delete-2">
	<path d="M15,0C6.716,0,0,6.716,0,15s6.716,15,15,15s15-6.716,15-15S23.284,0,15,0z M15,27C8.383,27,3,21.617,3,15S8.383,3,15,3
		s12,5.383,12,12S21.617,27,15,27z"/>
	<path d="M21.484,11.016c0-0.663-0.263-1.299-0.732-1.768c-0.469-0.47-1.104-0.732-1.768-0.732s-1.299,0.264-1.768,0.732
		l-2.475,2.475l-2.475-2.475c-0.469-0.469-1.104-0.732-1.768-0.732S9.201,8.778,8.732,9.248C8.263,9.717,8,10.353,8,11.016
		s0.264,1.299,0.732,1.768l2.475,2.475l-2.475,2.475C8.264,18.201,8,18.837,8,19.5s0.263,1.299,0.732,1.768
		C9.201,21.737,9.837,22,10.5,22s1.299-0.264,1.768-0.732l2.475-2.475l2.475,2.475C17.686,21.736,18.321,22,18.984,22
		s1.299-0.263,1.768-0.732c0.47-0.469,0.732-1.104,0.732-1.768s-0.264-1.299-0.732-1.768l-2.475-2.475l2.475-2.475
		C21.221,12.314,21.484,11.679,21.484,11.016z"/>
</g>
<g id="Layer_1">
</g>
</svg>
