<?xml version="1.0" encoding="utf-8"?>
<!-- Generator: Adobe Illustrator 16.0.4, SVG Export Plug-In . SVG Version: 6.00 Build 0)  -->
<!DOCTYPE svg PUBLIC "-//W3C//DTD SVG 1.1//EN" "http://www.w3.org/Graphics/SVG/1.1/DTD/svg11.dtd">
<svg version="1.1"
	 id="svg3869" xmlns:dc="http://purl.org/dc/elements/1.1/" xmlns:cc="http://creativecommons.org/ns#" xmlns:rdf="http://www.w3.org/1999/02/22-rdf-syntax-ns#" xmlns:svg="http://www.w3.org/2000/svg" xmlns:sodipodi="http://sodipodi.sourceforge.net/DTD/sodipodi-0.dtd" xmlns:inkscape="http://www.inkscape.org/namespaces/inkscape" sodipodi:docname="draw-line.svg" inkscape:version="0.91 r13725"
	 xmlns="http://www.w3.org/2000/svg" xmlns:xlink="http://www.w3.org/1999/xlink" x="0px" y="0px" width="24px" height="24px"
	 viewBox="0 0 24 24" enable-background="new 0 0 24 24" xml:space="preserve">
<path fill="#4D4D4D" d="M17.094,1.25v3.404L4.654,17.094H1.25v5.656h5.656v-3.404L19.346,6.906h3.404V1.25H17.094z M3.749,21.375
	c-0.714,0-1.292-0.579-1.292-1.293c0-0.713,0.578-1.291,1.292-1.291s1.292,0.578,1.292,1.291
	C5.041,20.796,4.463,21.375,3.749,21.375z M20.041,5.208c-0.714,0-1.292-0.579-1.292-1.292s0.578-1.292,1.292-1.292
	s1.292,0.579,1.292,1.292S20.755,5.208,20.041,5.208z"/>
</svg>
