<?xml version="1.0" encoding="iso-8859-1"?>
<!-- Generator: Adobe Illustrator 16.0.0, SVG Export Plug-In . SVG Version: 6.00 Build 0)  -->
<!DOCTYPE svg PUBLIC "-//W3C//DTD SVG 1.1//EN" "http://www.w3.org/Graphics/SVG/1.1/DTD/svg11.dtd">
<svg version="1.1" xmlns="http://www.w3.org/2000/svg" xmlns:xlink="http://www.w3.org/1999/xlink" x="0px" y="0px"
	 width="28.747px" height="27.16px" viewBox="0 0 28.747 27.16" style="enable-background:new 0 0 28.747 27.16;"
	 xml:space="preserve">
<g id="off">
	<path d="M9.569,12.047c3.075,0,5.568-2.723,5.568-6.08s-2.493-6.08-5.568-6.08C6.493-0.113,4,2.609,4,5.967
		S6.493,12.047,9.569,12.047z M9.569,2.887c1.416,0,2.568,1.382,2.568,3.08s-1.152,3.08-2.568,3.08C8.152,9.047,7,7.665,7,5.967
		S8.152,2.887,9.569,2.887z"/>
	<ellipse cx="6.182" cy="20.1" rx="1.745" ry="1.961"/>
	<path d="M17.5,12c0.828,0,1.5-0.672,1.5-1.5V5.823l4.186,5.593C23.475,11.791,23.854,12,24.311,12c0.162,0,0.42-0.026,0.578-0.08
		C25.497,11.713,26,11.143,26,10.5v-9C26,0.672,25.328,0,24.5,0S23,0.672,23,1.5v4.598l-4.439-5.592
		c-0.391-0.51-1.004-0.711-1.607-0.504C16.345,0.209,16,0.779,16,1.422V10.5C16,11.328,16.672,12,17.5,12z"/>
	<path d="M26.59,13.16h-0.002h-1.015h-3.671c-0.67,0-1.261,0.312-1.655,0.791c-0.396-0.479-0.987-0.791-1.657-0.791h-0.002h-1.015
		h-3.671c-1.19,0-1.902,0.805-1.902,1.995V16v1.093c-1-2.329-3.238-3.94-5.692-3.94c-3.414,0-6.245,3.11-6.245,6.946
		c0,3.838,2.862,6.948,6.276,6.948c2.454,0,4.66-1.611,5.66-3.94v1.738c0,1.19,0.712,2.315,1.902,2.315h1.516
		c1.19,0,2.582-1.125,2.582-2.315V23.16h0.588c0.428,0,0.412-0.282,1.412-0.488v2.173c0,1.19,0.712,2.315,1.902,2.315h1.516
		c1.19,0,2.582-1.125,2.582-2.315V23.16h0.588c1.19,0,2.412-1.076,2.412-2.267v-2.593V16v-0.845C29,13.965,27.78,13.16,26.59,13.16z
		 M6.182,25.047C3.876,25.047,2,22.827,2,20.099c0-2.728,1.876-4.946,4.182-4.946s4.181,2.219,4.181,4.946
		C10.362,22.827,8.487,25.047,6.182,25.047z M18.588,21.16h-1.015h-0.946c-0.486,0-0.627,0.233-0.627,0.72v1.169v1.796
		c0,0.085-0.496,0.315-0.582,0.315h-1.516c-0.086,0,0.098-0.23,0.098-0.315v-3.544v-3V16v-0.845c0-0.085-0.184,0.005-0.098,0.005
		h3.671h1.096c0.086,0,0.331-0.09,0.331-0.005V16v1.16h-2.253c-0.553,0-1,0.447-1,1s0.447,1,1,1H19v1.733
		C19,20.979,18.674,21.16,18.588,21.16z M26.588,21.16h-1.015h-0.946c-0.486,0-0.627,0.233-0.627,0.72v1.169v1.796
		c0,0.085-0.496,0.315-0.582,0.315h-1.516c-0.086,0,0.098-0.23,0.098-0.315v-3.544v-3V16v-0.845c0-0.085-0.184,0.005-0.098,0.005
		h3.671h1.096c0.086,0,0.331-0.09,0.331-0.005V16v1.16h-2.253c-0.553,0-1,0.447-1,1s0.447,1,1,1H27v1.733
		C27,20.979,26.674,21.16,26.588,21.16z"/>
</g>
<g id="Layer_1">
</g>
</svg>
