<?xml version="1.0" encoding="iso-8859-1"?>
<!-- Generator: Adobe Illustrator 16.0.0, SVG Export Plug-In . SVG Version: 6.00 Build 0)  -->
<!DOCTYPE svg PUBLIC "-//W3C//DTD SVG 1.1//EN" "http://www.w3.org/Graphics/SVG/1.1/DTD/svg11.dtd">
<svg version="1.1" xmlns="http://www.w3.org/2000/svg" xmlns:xlink="http://www.w3.org/1999/xlink" x="0px" y="0px"
	 width="27.747px" height="27.079px" viewBox="0 0 27.747 27.079" style="enable-background:new 0 0 27.747 27.079;"
	 xml:space="preserve">
<g id="on">
	<path d="M5.569,27.079c3.075,0,5.568-2.723,5.568-6.08s-2.493-6.08-5.568-6.08C2.493,14.919,0,17.642,0,20.999
		S2.493,27.079,5.569,27.079z M5.569,17.919c1.416,0,2.568,1.382,2.568,3.08s-1.152,3.08-2.568,3.08C4.152,24.079,3,22.697,3,20.999
		S4.152,17.919,5.569,17.919z"/>
	<path d="M18.136,18.079c0.891,0,1.611-0.745,1.611-1.636c0,0-0.62-1.386-1.391-1.395c-1.971-0.024-5.362,0.03-5.582,0.03H13v-0.036
		c-1,0.212-1,0.775-1,1.411v9.078c0,0.828,0.672,1.5,1.5,1.5s1.5-0.672,1.5-1.5v-2.453h2.247c0.828,0,1.5-0.672,1.5-1.5
		s-0.672-1.5-1.5-1.5H15v-2H18.136z"/>
	<path d="M26.136,18.079c0.891,0,1.611-0.745,1.611-1.636c0,0-0.62-1.386-1.391-1.395c-1.971-0.024-5.362,0.03-5.582,0.03H21v-0.036
		c-1,0.212-1,0.775-1,1.411v9.078c0,0.828,0.672,1.5,1.5,1.5s1.5-0.672,1.5-1.5v-2.453h2.247c0.828,0,1.5-0.672,1.5-1.5
		s-0.672-1.5-1.5-1.5H23v-2H26.136z"/>
	<ellipse cx="7.182" cy="7.132" rx="1.745" ry="1.961"/>
	<path d="M12.656,7.575c0.053-1.327,0.177-2.615,0.428-3.903c-0.11-0.194-0.225-0.383-0.337-0.569v1.022
		c-0.998-2.329-3.111-3.94-5.565-3.94C3.768,0.185,1,3.295,1,7.131c0,3.838,2.768,6.948,6.182,6.948c2.436,0,4.532-1.589,5.54-3.891
		C12.686,9.296,12.623,8.404,12.656,7.575z M7.182,12.079C4.876,12.079,3,9.859,3,7.131c0-2.728,1.876-4.946,4.182-4.946
		s4.181,2.219,4.181,4.946C11.362,9.859,9.487,12.079,7.182,12.079z"/>
	<path d="M16.025,2c0.405,0,0.829,0.172,1.068,0.483l3.358,4.623V3.305c0-0.685,0.556-1.24,1.24-1.24s1.24,0.556,1.24,1.24v7.44
		c0,0.531-0.183,1.003-0.686,1.174c-0.131,0.045-0.11,0.066-0.245,0.066c-0.377,0-0.846-0.172-1.085-0.482L17.146,6.88v3.865
		c0,0.686-0.556,1.24-1.24,1.24s-1.24-0.555-1.24-1.24V3.241c0-0.531,0.441-1.003,0.944-1.175C15.739,2.021,15.881,2,16.025,2
		 M16.025,0c-0.369,0-0.728,0.059-1.065,0.175c-1.35,0.46-2.295,1.722-2.295,3.066v7.504c0,1.787,1.453,3.24,3.24,3.24
		c1.296,0,2.416-0.764,2.935-1.865l0.515,0.631c0.718,0.91,1.835,1.234,2.647,1.234c0.349,0,0.643-0.06,0.945-0.192
		c1.224-0.44,1.985-1.604,1.985-3.048v-7.44c0-1.786-1.453-3.24-3.24-3.24c-1.166,0-2.189,0.62-2.761,1.546l-0.22-0.303
		l-0.017-0.022l-0.017-0.021C18.07,0.473,17.078,0,16.025,0L16.025,0z"/>
</g>
<g id="Layer_1">
</g>
</svg>
