<?xml version="1.0" encoding="iso-8859-1"?>
<!-- Generator: Adobe Illustrator 16.0.0, SVG Export Plug-In . SVG Version: 6.00 Build 0)  -->
<!DOCTYPE svg PUBLIC "-//W3C//DTD SVG 1.1//EN" "http://www.w3.org/Graphics/SVG/1.1/DTD/svg11.dtd">
<svg version="1.1" xmlns="http://www.w3.org/2000/svg" xmlns:xlink="http://www.w3.org/1999/xlink" x="0px" y="0px" width="27px"
	 height="29.952px" viewBox="0 0 27 29.952" style="enable-background:new 0 0 27 29.952;" xml:space="preserve">
<g id="paint-bucket">
	<path d="M13.384,20.931c-4.264,0-8.04-2.107-10.355-5.332L3,25.534c0,2.439,4.67,4.418,10.501,4.418
		c5.83,0,10.499-1.979,10.499-4.418l-0.029-10.279C21.682,18.671,17.796,20.931,13.384,20.931z"/>
	<path d="M6,8.503c0,0.912-0.357,1.735-0.928,2.357c1.134,3.516,4.424,6.07,8.312,6.07c3.963,0,7.304-2.656,8.374-6.276
		C21.29,10.059,21,9.318,21,8.503c0-1.752,1.29-3.189,2.971-3.446l-0.031-1.003C23.441,1.81,18.961,0,13.502,0
		C8.041,0,3.559,1.81,3.062,4.054L3.059,5.06C4.725,5.328,6,6.761,6,8.503z M4.996,4.438C5.18,3.709,8.295,2,13.502,2
		c5.205,0,8.318,1.709,8.502,2.397c-0.13,0.521-1.691,1.465-4.568,2.079c-1.902,0.406-0.21,3.526-1.436,3.526
		c-0.614,0-0.492-2.09-0.436-2.357c0.066-0.532-0.79-0.717-1.111-0.643c-1.221,0.281-1.141,1.125-0.979,1.453
		c0.397,0.811,0.659,2.01,0.659,2.52c0,0.807-0.653,1.461-1.459,1.461c-0.808,0-1.461-0.653-1.461-1.459
		c0-0.353,0.125-1.031,0.332-1.686c0.326-1.49-0.918-2.482-2.02-2.822C6.814,5.631,5.126,4.928,4.996,4.438z"/>
	<path d="M27,8.503c0-1.381-1.119-2.5-2.5-2.5S22,7.122,22,8.503c0,0.752,0.339,1.419,0.865,1.877
		c-1.001,4.318-4.864,7.551-9.481,7.551c-4.561,0-8.385-3.152-9.443-7.39C4.58,10.088,5,9.346,5,8.503c0-1.381-1.119-2.5-2.5-2.5
		S0,7.122,0,8.503c0,1.211,0.86,2.22,2.003,2.45c1.252,5.14,5.861,8.978,11.381,8.978c5.514,0,10.134-3.824,11.392-8.955
		C26.024,10.837,27,9.79,27,8.503z"/>
</g>
<g id="Layer_1">
</g>
</svg>
