<?xml version="1.0" encoding="iso-8859-1"?>
<!-- Generator: Adobe Illustrator 16.0.0, SVG Export Plug-In . SVG Version: 6.00 Build 0)  -->
<!DOCTYPE svg PUBLIC "-//W3C//DTD SVG 1.1//EN" "http://www.w3.org/Graphics/SVG/1.1/DTD/svg11.dtd">
<svg version="1.1" xmlns="http://www.w3.org/2000/svg" xmlns:xlink="http://www.w3.org/1999/xlink" x="0px" y="0px"
	 width="26.944px" height="19.884px" viewBox="0 0 26.944 19.884" style="enable-background:new 0 0 26.944 19.884;"
	 xml:space="preserve">
<g id="right">
	<path d="M26.335,8.865L12.032,0.18c-0.382-0.232-0.904-0.24-1.293-0.021S10,0.789,10,1.236v2.928c0,0.897-0.669,1.658-1.555,1.802
		C3.787,6.724,0.01,10.724,0.01,15.546c0,1.439,0.314,2.802,0.878,4.028c0.087,0.189,0.274,0.311,0.483,0.31
		s0.396-0.124,0.481-0.313c1.122-2.496,3.268-4.428,5.904-5.268c0.514-0.164,1.095-0.073,1.531,0.245S10,15.374,10,15.913v2.694
		c0,0.447,0.347,0.86,0.737,1.079c0.39,0.22,0.983,0.211,1.366-0.021l14.261-8.686c0.369-0.225,0.584-0.626,0.584-1.058
		S26.703,9.09,26.335,8.865z M10,5.841v0.006C10,5.845,10,5.843,10,5.841z"/>
</g>
<g id="Layer_1">
</g>
</svg>
