<?xml version="1.0" encoding="utf-8"?>
<!-- Generator: Adobe Illustrator 16.0.4, SVG Export Plug-In . SVG Version: 6.00 Build 0)  -->
<!DOCTYPE svg PUBLIC "-//W3C//DTD SVG 1.1//EN" "http://www.w3.org/Graphics/SVG/1.1/DTD/svg11.dtd">
<svg version="1.1" id="レイヤー_1" xmlns="http://www.w3.org/2000/svg" xmlns:xlink="http://www.w3.org/1999/xlink" x="0px"
	 y="0px" width="34.625px" height="35.738px" viewBox="272.794 281.564 34.625 35.738"
	 enable-background="new 272.794 281.564 34.625 35.738" xml:space="preserve">
<metadata><?xpacket begin="﻿" id="W5M0MpCehiHzreSzNTczkc9d"?>
<x:xmpmeta xmlns:x="adobe:ns:meta/" x:xmptk="Adobe XMP Core 5.3-c011 66.145661, 2012/02/06-14:56:27        ">
   <rdf:RDF xmlns:rdf="http://www.w3.org/1999/02/22-rdf-syntax-ns#">
      <rdf:Description rdf:about=""
            xmlns:dc="http://purl.org/dc/elements/1.1/">
         <dc:format>image/svg+xml</dc:format>
         <dc:title>
            <rdf:Alt>
               <rdf:li xml:lang="x-default">Print</rdf:li>
            </rdf:Alt>
         </dc:title>
      </rdf:Description>
      <rdf:Description rdf:about=""
            xmlns:xmp="http://ns.adobe.com/xap/1.0/"
            xmlns:xmpGImg="http://ns.adobe.com/xap/1.0/g/img/">
         <xmp:MetadataDate>2014-06-02T00:27:26+09:00</xmp:MetadataDate>
         <xmp:ModifyDate>2014-06-02T00:27:26+09:00</xmp:ModifyDate>
         <xmp:CreateDate>2014-06-02T00:27:26+09:00</xmp:CreateDate>
         <xmp:CreatorTool>Adobe Illustrator CS6 (Macintosh)</xmp:CreatorTool>
         <xmp:Thumbnails>
            <rdf:Alt>
               <rdf:li rdf:parseType="Resource">
                  <xmpGImg:width>248</xmpGImg:width>
                  <xmpGImg:height>256</xmpGImg:height>
                  <xmpGImg:format>JPEG</xmpGImg:format>
                  <xmpGImg:image>/9j/4AAQSkZJRgABAgEASABIAAD/7QAsUGhvdG9zaG9wIDMuMAA4QklNA+0AAAAAABAASAAAAAEA&#xA;AQBIAAAAAQAB/+4ADkFkb2JlAGTAAAAAAf/bAIQABgQEBAUEBgUFBgkGBQYJCwgGBggLDAoKCwoK&#xA;DBAMDAwMDAwQDA4PEA8ODBMTFBQTExwbGxscHx8fHx8fHx8fHwEHBwcNDA0YEBAYGhURFRofHx8f&#xA;Hx8fHx8fHx8fHx8fHx8fHx8fHx8fHx8fHx8fHx8fHx8fHx8fHx8fHx8fHx8f/8AAEQgBAAD4AwER&#xA;AAIRAQMRAf/EAaIAAAAHAQEBAQEAAAAAAAAAAAQFAwIGAQAHCAkKCwEAAgIDAQEBAQEAAAAAAAAA&#xA;AQACAwQFBgcICQoLEAACAQMDAgQCBgcDBAIGAnMBAgMRBAAFIRIxQVEGE2EicYEUMpGhBxWxQiPB&#xA;UtHhMxZi8CRygvElQzRTkqKyY3PCNUQnk6OzNhdUZHTD0uIIJoMJChgZhJRFRqS0VtNVKBry4/PE&#xA;1OT0ZXWFlaW1xdXl9WZ2hpamtsbW5vY3R1dnd4eXp7fH1+f3OEhYaHiImKi4yNjo+Ck5SVlpeYmZ&#xA;qbnJ2en5KjpKWmp6ipqqusra6voRAAICAQIDBQUEBQYECAMDbQEAAhEDBCESMUEFURNhIgZxgZEy&#xA;obHwFMHR4SNCFVJicvEzJDRDghaSUyWiY7LCB3PSNeJEgxdUkwgJChgZJjZFGidkdFU38qOzwygp&#xA;0+PzhJSktMTU5PRldYWVpbXF1eX1RlZmdoaWprbG1ub2R1dnd4eXp7fH1+f3OEhYaHiImKi4yNjo&#xA;+DlJWWl5iZmpucnZ6fkqOkpaanqKmqq6ytrq+v/aAAwDAQACEQMRAD8A9U4q7FXYq7FXYq7FXYq7&#xA;FXYq7FUv1bzDomkaVe6rqN7Fb6fpyNJe3DNURhevILU8uwUCpOw3xV47N/zlTo+q3b2HkLytq/m2&#xA;+jFW9GIwQgHYMz0mkUe7RjFXfWv+crfNW8Fto/kayfo0xF3dhT7UuUr81TFWz/zjJNrgZ/P3nrW/&#xA;Mcjb+hHILa2UnssTm4FB/k8flirQ/wCcUdA08BvLHm7zDoUi/Z9G6UoCKEECNIW67/axV3/Kovz9&#xA;0jfQfzVkvAPspqtoJfEULym8r86Yq71P+cvNHO8XlzzGo6hS8LMNuhJsgD9GKsSuf+cwvMHl7V5N&#xA;H82+UIFvbchbo6fqEcgQkV+HitxGx9vV2xVmcn/OX/5Oo8Kia/kEqK8jpanjGzLUo/JlJZTseII8&#xA;CRvirINL/wCck/yU1IqsXmaGBzsVuori3pvTdpY1T/hsVZjpPnnyVrHEaTr+nX7N0W2u4JW3/wAl&#xA;GJxVO8VdirsVdirsVdirsVdirsVdirsVdirsVdirsVdiqR+ZfPPk3ywgfzBrVnphZeSR3MyJI48U&#xA;jJ5v/sRiry3WP+ctvy5juDZeW7PUvM9+1RDFZW7IjEe8vGT7oziqA/x3/wA5Qebfh8veTbXynZSd&#xA;LzV3LTp4fBL6bf8ATucVb/6F9/M3zP8AH+YX5kXtxG/99pmlAw25+R/dRf8ATvird3/zhl+WDwMl&#xA;pqOr2kpFPUE8DgjbZlMIqNuxGKsZl/5w317SZnuPKfnmazlbbi0Mlu1B0rNbzVPX+TFVNvy5/wCc&#xA;wvLtTpXmtdZValA14LhiKgio1KMCv04qhL/83v8AnK/ybaSXfmTy5Fd2VsK3N3NaB40UHdmlsZEj&#xA;Ub9Ttiq3Sv8AnOK/UBdW8pxTH9qS0u2ioafySRS9/wDLxVB+Zv8AnNrzHcxel5b8v22nMdjc3srX&#xA;bfNURYFU/MtirBdK8zec/wA1r+a284fmRb6Fp6kB4b6VreF+df7u3hEVu3Gm/NlxV7p+XX/OMn5H&#xA;CNLh9WTzncABiyXUYtvEMsVq/Kn+tIwxV7Zpnk3ylpVmLLTdFsbO148TDDbxIpH+UAu/XviqVat+&#xA;Uf5X6tyN/wCVdLlkb7Uq2sUchqa7yRqj9ffFWG6r/wA4o/kpfVMOkz6e7dXtbuf8FmaZB92KpL/0&#xA;Kjbab/yinnrX9DI+wBMHC9OnoG18PHFUj80aJ+cn5d2v1mX85LBYAOUceuRgSSgEkhI3S+lf/YVO&#xA;KoH8nvz9/PfzNqkSTeWB5i0chlnvLaH6mVcKeP8ApMjpaj4h8QIrTpvir2uPzF+baAy3Hk2weJjV&#xA;YbfWKzqPAiW0iiY/KQD9eKr/APlYmr222q+SdetGH2nt47S/j+j6pcSyH/kXirv+Vx+QIttQvbjS&#xA;GH2l1WxvbDj82uYYk/HFU70nzt5N1ig0nXtP1AtSi2t1DMd/ZGY4qnWKuxV2KuxV2KpdrXmPy/od&#xA;v9Z1rU7XTYKE+rdzRwqaeBcrXFXl/mL/AJys/KLSnMFjd3OvXhPFYNNt2arHoPUm9FG/2JOKpL/y&#xA;t78//NRKeTfy6OlWr/Y1DXHZPhPR1SQ2o/4Hn9OKuT8tP+cndVP1vVvzGttMnIJS0sIOUa91U8Y4&#xA;B8z8XzOKvMPP3/OLn556xrNzrl7qVh5j1C54B51m9CZxGgRapJHDEtFUCgbFURoOv/8AOUf5bWMd&#xA;hF5NinsYE4lIdNimUqgpykk0spyIH7TEk9TXFU6sv+c0da0+f6r5o8mGGcU5mGeS3dR3/czxuT/w&#xA;YxVmmjf85j/lNfcVv49R0pz9tp7dZYx8jA8rEf7DFWc6T+e35ParHztfNunRrStLuYWZ/wCBuvRO&#xA;KpD5s/5yh/J/y8jLHqp1q6Xpb6Wnrg/89mKQU/2eKvKrv/nKT81/OVw+n/lx5SMbE8Tc+m9/Mlej&#xA;EhY4Iv8AZhhiqnF/zj5+f35gSLP+Yfmc2FmxDNZyzG6ZT1qlrblLVfocfLFXpXlD/nEz8p9BKTah&#xA;bz+YLtd+d/JSEN/kwRempHs/LFWY335IflDewLDN5R0tEUUBgt0t3pSm7wiNz8ycVYbq/wDziJ+T&#xA;V9X6ta3ul1/5ZLt2p8vrIuMVYTqv/OEGm19TRfNc9u6mqLdWyy7j/Ljkhp8+OKpeP+cfv+ck/LtD&#xA;5c87evbpThbx6hdw1oe8MimH72xVB6t54/5y98g6fLqPmGJbnSbXj6lxcR2NxGAzcQWe2Ky7k0+I&#xA;1xVV8rf85hfmTqc4s08nW+t3pHww6WLpXO+x9MfWmxVLvP8A+d3/ADkXfOttcaNfeStKkZUmnt7C&#xA;5EoRvtMbiVS225/dcTtTFXsf5f8A5K/ksSusQ3MPnjV5VEsmq6jdLfl2I+0YgWjHtyUsPHFUf55j&#xA;/PySNrXyra6XYWCjjD9TmD3HAUAHK6jgiXb+VdvHFXil/o//ADkTpNw9zN/iD1akySW889yu25r6&#xA;DyLT8MVQ8X52/nJosghutTnBHWG+toixp4mSMSd/HFWQaf8A85Uee4AFvbDT7tR1YJLE528RIV/4&#xA;XFUbL+f35fayaeZvy+s7qv25CtvdE1I3AmhTfb+bFU38t+Z/yK1q8istF0nXNGvn2ji0qS+titBS&#xA;qpptwRQdPs4q9Gv/ACZf6XYS6hZeftY0m3iT1Gk1F7O7tkWlay/XYGlAr1/eA/LFXjuifnn/AM5B&#xA;aPZpr3mryxHfeTYplW91VLWW2m+rl+JuI1LqeBB5AtDQ7bjFUR5//wCcztP06/utN8o6MNQe3keL&#xA;9J3snCBmQleUcUXxuhPQl127Yq880j87POvn6+mtvM/5kp5GsagQx2VnKvPlXlxlgCuoWn+7Jv44&#xA;q9U8lfkN+QOr3QvZ/Mp88alIQZTNqSOWftWO3ZJf9i7nFXtvl3yT5Q8txiPQdGs9MAFC9tBHG7f6&#xA;zgc2+k4qnWKuxV2KobUNT03TbV7zUbuGytI/7y4uJFijX5u5VRirx7z3/wA5Pfktp0Mtk0h80SCo&#xA;a1tIFmg5e8s/CIj3Qtir548zalq35sy/VvI/5XWemwGWpv8ATrZvW5A7iW6QW9soau/JPpxVk3lT&#xA;/nC3zxfok3mPVrTRI2FTBEpvZ19mCtFF90hxVOdX/wCcHtRReWj+a4Zm/wB93lq0IH+zjkmr/wAB&#xA;iqG0z8qv+csfIFkLLyrqUVzp8HJ0tbO4t5YQWPJisV+kYqTvsuKoz/leX/OUHlkgeYvJ3123Qj1J&#xA;30+4X7prZvRH/AnFUx0n/nN3Tw/pa95UuLZ02ke0uVlNf+MUqQ8f+DxVnWjf85a/kzqPEXF/daUz&#xA;Uot7ayGhPYtb/WFH30xVnWj/AJq/lprIH6N8z6ZO5/3V9aiSTx/u3ZX/AAxVJvOP5/8A5UeVI2+v&#xA;a7DeXQBK2OnEXcxIr8J9MlEO3+7GXFWKJ+YH58+eowfJPliHyro0wrFruvtWZkO6vFbAGlQaiqOp&#xA;8cVSDXPy5/LrS7ldR/OLzzdebdYjPNdKaV0hRjvRLO3LSIKnbdF9sVS+/wD+cidH0KybSvy68s22&#xA;k2Q2WeaNEr25ehBQcv8AKZz7jFUt07/nKL8xLdh9agsL1K/FzheNqexjdR/wpxVNj/zkV5R1dl/x&#xA;R5FtL1gQTP8Aubg1G9Qk8WxB3Hx4qnmmfm3+SU4UI+teXStKLDcXkUKmtTSG1nliP0x4qyvTfO3l&#xA;a7odJ/M3dtorfVEsuAJO2zw2c5PbeTFWRo/nG8tmMc2geZLZqkIBPZRmv2QWDaoPp44qxzX/AC15&#xA;cW0nu9f/AC0imSFXluLjRjaTHgi1LbtYXD7dAqFvbFXlSat/zh5fAXY1C6sPToz2JXUKt247xzE1&#xA;J/Zf8MVe06DaTWWlcPK+i2vlDQuHOTUdRQfWWQCof6srA/ZP27iYMv7UZxVhPmb83Pyx8uXImjln&#xA;87eYoDWK7mdXgikFfiibiLeHwrbxdOpxVbpf5ja158/J/wDMq+1WKGFLbTL6O1t4FIVENjK27MWL&#xA;NXv+AxVgv/ONfljy3qf5cXMupaVZ30kuoSrI1zBHMWVI4+IPNW2HI0HvirMNY/IH8qtTqToq2cp/&#xA;3bZySQ0+SBvT/wCFxVhOsf8AOJflyXk2j65d2bHdVuo47lfl8H1c0xVLovyi/wCcgfK9W8r+b3mg&#xA;XdbaO8uIeRHjDKDB97YqjIfzW/5yy8r0/SukfpqFOvqWcdwKDuX05kP0k4qj7T/nNnVbSNoNc8mj&#xA;68q/7quntwW8DHLDKyj/AGRxVh/m7/nMT8zNXLxaHDa+XrVqhTEoubmh8ZZhw+lYwcVVvJf5Sr+Z&#xA;z22secfzQsri4nVXGnC6+t36BwP3bLcPF6J7UVGHbFX0L5Q/5xr/ACg8trHJHoy6tdrQ/W9Ub60S&#xA;R0PpECAfRHir06GGGCJIYUWKKMBUjQBVUDoABsMVX4q7FXYq7FWIfmBrH5V6XZmXz1JpQhKnjFqM&#xA;cU8jr0IjhZXkf5KpxV85+ZtK/L78w47iz/K38rbi9nlVoovMxMml2EDnb1EUOsUnGteD0P8AknFX&#xA;aH/ziNo2jWa6n+ZfmuDTbciptLJ0TfY0+sXA3behVYj7HFUY35If84x6x+70nznc6fOPhBnuIkjJ&#xA;ApUi5hiJqd9mHtir6B0y588fU43s9S0XzKiIFMy+rYFzTZmkibUUqep4oB4AYqx/VvJ3l69Zzrf5&#xA;apLIx/eXWkyWbKa7li3qWFw30Rk4qxDVPyj/ACRnLGQ6x5bO55XEN3BAtOxmvIHiIHtL9OKpF/0L&#xA;ZourI0vlTzrZ6koFQlI5R9MkEr/8QxVINU/5xn/M6z5G2itNSUdPq1wFJHynEOKsP1T8sPzD0upv&#xA;fL18iLXlIkLSoKeLxB1/HFU58nfkd+YXmdlkjsDptgSK3t+GhWniiEeo+3Qhae+KvXfKf5S/lz5U&#xA;1BVmluvNnmeAgNZWSkpE+xpKiMsUP/RzKFOKs81/Ub+LTWuPNOsWvlLR5AU+rW0qvdutB8H1qRQq&#xA;sRsyQxFh+zJ3xV5xd+VPyV178sb3UPKGgW9rFoWoW8dpqX1cR3LSwy28jN6r8pnR0k4n1DU+HQ4q&#xA;x3/nKrVNSHnHT9MF1KNO/RsU5sw7CIytcTqXKV4lqIBX2xV4fir2/wDKb/yRX5of9s69/wC6fLiq&#xA;p/zi1/5LSX/toz/8m4sVewYq7FXYq7FXgH/OW9rbfobQLr0l+si4miE1Bz4FA3GvhUVxVlXl38j/&#xA;AMr9U8maK93oiG4msbeWS5SWaOVpJYld2ZkcVqx77Yqkmr/84oeTbjk2l6pfWDt0WX07iNfkOMT/&#xA;AHviqSR/kJ+cPlqp8o+cmSJN1ijuLqxLU/yEMkf0FsVRcfnf/nLzyuaXVu+tW8YqqtBbXvID3teM&#xA;5+k1xVMLL/nMzzXpcqW/m3yaqTHZzDJNZsKdSIrhJifly+nFWcaH/wA5jflPflE1GPUdIc/beeAT&#xA;RA+zW7yuf+AxVvzT/wA5hflZpduf0ILrzBdEfu0hie1irT9uS5VHX/YxtirWmw/85CfmXp9tqU2r&#xA;WnkHyzqEST28VgpuNSkglUOjGRivDkp6q6Efy4qkl9ov/OPn5bX7y6rbXfnDzUDyluNRDXjtID9o&#xA;mUR22x7gMwxVj3mf/nJfzpqEf1XQYINAsVASMQgTThQKAeo4CKKDbjGKeOKvKtS1XU9Uumu9Su5r&#xA;26f7U9xI0rn/AGTknFULiqrb3NxbSiW3leGUdJI2KsPpFDirKNL/ADY/MnS+P1TzHe8V+yk8puEH&#xA;txn9Rae1MVZfpf8Azk7+ZNoAt2LLUR0LTwFGP0wNEv8AwuKshtPz98veZbuK1138v4dWu5SAhgWO&#xA;7lYj+SKSHlUdqPir17SvLeiz6UuppDq3lVQGkNvJfywrEoFSzW63E9qooP2lqPAYq8x1DzP/AM5F&#xA;p5p1GPyCIfN/lO3VHstS1SG2hSUsgZo4Z4msRchWqBIlR4mu+Kpx5e84ahqH5bw+d/zS1CSxtLme&#xA;WGPy/piS2sYaOV4RHNwZrmR2MTEo0vp8ftDFWC+Y/wDnJK/jtBpXkXSoPL+mRArDKY42lA/yIlHo&#xA;x/c3zxV5Dq2tavrF417qt5NfXb/amuHaRqeALE0HsMVe5/lN/wCSC8yf9tcfqssVSX/nKv8A8mHp&#xA;3/bIh/6ibjFXjOKvb/ym/wDJFfmh/wBs69/7p8uKqn/OLX/ktJf+2jP/AMm4sVewYq7FXYq7FXgv&#xA;/OW3/KO6B/zGS/8AJrFXsHkn/lDNA/7Z1p/yYTFU6xV2KuxVTuLa3uYjFcRJNEescihlP0GoxVgP&#xA;nn8ovy61HQNTmOh2trdx200kV1ZxrbyLIqFlb92FVtx+0DirC/yd/Lz8nofyQXzn520g6i13cyRX&#xA;E/KUvGgn9CNYljePiKipI+LfwoMVepeVvNn5awWVtp/lfz/NpVjaRiK10zUTE0EaKKInK/hE/FRs&#xA;As9KbDFWZI3mu/tRxk0DzRYv12ls0p23B1RHNPYYqxnV/I3ku95fpz8t5ICT8d1pRgaOviBaTQXL&#xA;e/7nFWF6t+Tv5Jzs5i1688tyk0WLVVe0Sp2HFdQit5G+h8VSm9/5xZ1qWL6x5f8AMNjqduwrG8ge&#xA;EN7Bo/rCn78VYfq35C/mpppJbRWu4x0ktJIpq08EVvU/4XFUi078uPPuoaj+jrbQL763UB0lgkhC&#xA;V2q7ShFQe7EYq9U0P/nHPS9It49R/MLXIrKFiBHp9q45u/X0/UYVd+3CJCT2OKvWPLejR6VaNb+S&#xA;vLsHl+xK/vNZ1WNlldRvy+rclupAO4uJIiOwOKsU82fmf+WGgTFtRvpvO2uQsGSEsklpFIu4KIoW&#xA;zj4noyo8g7k4qoflN+dHmjzz+Ycljdxw2WkR2U00dlCvI81eMKzyt8TEcj04j2xVKfzT/wDJD2//&#xA;AG37z/qOvcVfO+KuxV9AflN/5ILzJ/21x+qyxVJf+cq//Jh6d/2yIf8AqJuMVeM4q9v/ACm/8kV+&#xA;aH/bOvf+6fLiqp/zi1/5LSX/ALaM/wDybixV7BirsVdirsVeC/8AOW3/ACjugf8AMZL/AMmsVewe&#xA;Sf8AlDNA/wC2daf8mExVOsVdirsVdiqXeZP+Ud1T/mDn/wCTTYq8h8uf+sdRf8xrf91E4q8bxVXt&#xA;L29s5hPZ3EltMv2ZYXaNh8mUg4qy3SPzl/M7SeItvMN1Ii/sXRW6FPD9+JDT5YqzTSf+cpvO1uoj&#xA;1PT7HUY+jMFeCQjvUqzJ/wAJiqb2X54/lJfztPq/k59LvJdnvtN9MTfTcQmzm+7FWX6T+Yf5aXhV&#xA;dH8+6loz03t76Qzr/spNUhuj/wADKMVTWa4/NaXz/Z+WDrdjH5euNPm1FtYtLMJqBEUkcRiAmkuL&#xA;flymVg/pUpX4a4qwnzD+eXkLyteXK+VNNk1vXhWGfXL95HJod19aYvO6Bq/AvBB+ztirx7zj+afn&#xA;jzczrq+pP9TY1GnwfurYeH7tft07FyT74qxPFXr3/OL3/kyZf+2dP/ycixVlX5p/+SHt/wDtv3n/&#xA;AFHXuKvnfFXYq+gPym/8kF5k/wC2uP1WWKpL/wA5V/8Akw9O/wC2RD/1E3GKvGcVe3/lN/5Ir80P&#xA;+2de/wDdPlxVU/5xa/8AJaS/9tGf/k3Fir2DFXYq7FXYq8F/5y2/5R3QP+YyX/k1ir2DyT/yhmgf&#xA;9s60/wCTCYqnWKuxV2KuxVLvMn/KO6p/zBz/APJpsVeQ+XP/AFjqL/mNb/uonFXjeKuxV2KuxV2K&#xA;uxV9vW3/AJMPRP8AwHbr/qJs8VfFWpf8dG6/4zSf8SOKobFXYq9e/wCcXv8AyZMv/bOn/wCTkWKs&#xA;q/NP/wAkPb/9t+8/6jr3FXzvirsVfQH5Tf8AkgvMn/bXH6rLFUl/5yr/APJh6d/2yIf+om4xV5Fp&#xA;2m6hqV5FZafbSXd5MeMVvChd2Psq1OKvoTSPJup+QvyR812OvNGms+aoJbDS9LiYPK11eW5tbeAU&#xA;NHkaSTcJUBd69aKpL/zi1/5LSX/toz/8m4sVewYq7FXYq7FXgv8Azlt/yjugf8xkv/JrFXsHkn/l&#xA;DNA/7Z1p/wAmExVOsVdirsVdiqXeZP8AlHdU/wCYOf8A5NNiryHy5/6x1F/zGt/3UTirxvFXYq7F&#xA;XYq7FXYq+3rb/wAmHon/AIDt1/1E2eKvirUv+Ojdf8ZpP+JHFUNirsVevf8AOL3/AJMmX/tnT/8A&#xA;JyLFWVfmn/5Ie3/7b95/1HXuKvnfFXYq+gPym/8AJBeZP+2uP1WWKsq/Nf8AJvVvPX5g2eoPdR6f&#xA;oFppsUV1esQ0hdJ53ZI0qNwrglmoBXv0xVPfJfl/Q9Fsvqf5e6dF6UgAuvNd6C8cgHUxEcXuvYRl&#xA;Ie4eo4lVjf5ieWfy88zeQvN2pR3r695i8tWVxdprxlZpbe7t4GnjWB4+EMagxjkkKhfGrYq+dfy5&#xA;/Om4/LoalocNomveXheyNbXaMbdzU8PUUlXBEiRhgrD6cVexaB/zkx+WmphUvZbjSJjsRdRFkr7P&#xA;D6u3uwGKvRtG8y+Xtbi9XR9TtdQSlSbaZJSP9YKSR9OKplirsVeC/wDOW3/KO6B/zGS/8msVeweS&#xA;f+UM0D/tnWn/ACYTFU6xV2KuxV2Kpd5k/wCUd1T/AJg5/wDk02KvIfLn/rHUX/Ma3/dROKvG8Vdi&#xA;rsVdirsVdir7etv/ACYeif8AgO3X/UTZ4q+KtS/46N1/xmk/4kcVQ2KuxV69/wA4vf8AkyZf+2dP&#xA;/wAnIsVZV+af/kh7f/tv3n/Ude4q+d8VZN5J/LnzZ5zvPq+i2ZeFWC3F9LVLeKv88lDv/krVvbFX&#xA;qvn648u/ld+U19+Xljq41Pzrr88bRWsNA6TTtCpcgH90ipEOHM1Zt+laKs31jWbbyn5espvzZ15d&#xA;e1v0lkj0K0iSK3klX9owIF9ajD7cxEdRVUVsVeKfmJ+eXm3zh6lnE/6J0NqqNPt2NZF/4vk2L/IU&#xA;X2xVlH5Tf+SK/ND/ALZ17/3T5cVa/wCcX7W1m/LG5SWFJEm1GcSq6hg4EcVAwI3+nFWV6/8Akh+W&#xA;GtlnuNDhtp2/3dZcrUg+PGIqhP8ArKcVec6z/wA4oWscn1nyz5hntJ4zyhS7QOQfaaH0yv8AwBxV&#xA;Lf0L/wA5QeTf947x9dsk6hZUvgQOgCXAW4H+wGKoix/5yg8y6TOLPzj5WaG4G0hi9S0kFP8Aii4D&#xA;1P8AsxirF/z2/N7yx560jR7XRorqOW1lknuBcoiceShQvwu9T8sVfRf5a6zpWq+RtEl0+6juUisb&#xA;aKbgwJSSOII6OOqkMpG+KsnxV2KuxV2Kpd5k/wCUd1T/AJg5/wDk02KvIfLn/rHUX/Ma3/dROKvG&#xA;8VdirsVdirsVdir7etv/ACYeif8AgO3X/UTZ4q+KtS/46N1/xmk/4kcVQ2KuxV69/wA4vf8AkyZf&#xA;+2dP/wAnIsVZp+YOmajqf5KWVjp1tJd3k/mC8WK3hUu7H69e9FXFUo8of84/aVo1tBrP5jXYjV2A&#xA;t9Cti0kksnURH0uUkrkA/u4QT79cVetXU6afoYl1CWLyT5QtV4paxMkV5IvZS8ZK2/Lf4IeUprs6&#xA;NUYqxi+1fyT5u/KfWJtC00QaVpeowx2rSRhGeeGa2nNyOrBnaTdmPJt+XU4q83/5yr/8mHp3/bIh&#xA;/wCom4xV4zir2/8AKb/yRX5of9s69/7p8uKqn/OLX/ktJf8Atoz/APJuLFXsGKuxV2Koe+0+wv7d&#xA;ra/toru3b7UM6LIh+auCMVfNX/OTH5feU/L9rpGq6HYR6dNdzSwXMMA4RMAodW4DZSP8mmKrtH/5&#xA;xn1+TQdM1zQ/Mq22p3dtFc+mySQKhmQSBVniZn2rT7GKorn/AM5R+Teok1+xi7/BqAeny43n6sVR&#xA;mlf85VXNpP8AVPNnlqS2nT+9e1Yo4/6N7gKfvkxV6HoH59/lbrIVV1hdPnbrDqCm3p85G/c/8Pir&#xA;PLS8tLyBZ7SeO4gf7MsTK6H5MpIxVCeZP+Ud1T/mDn/5NNiryHy5/wCsdRf8xrf91E4q8bxV2Kux&#xA;V2KuxV2Kvt62/wDJh6J/4Dt1/wBRNnir4q1L/jo3X/GaT/iRxVDYq7FX0F/zjp+X3mXRdXn8361A&#xA;NM0cWMsaNdN6UjBmRzJwb7EaqhJZ6e1Riqffkh5188eYdI1a10rTbaPy/b6pqH6O803UrFHimupZ&#xA;6JZqqPKU9WlfURad6ggqqXnD85vJnk64nXRHPmnzayGKbV7hw8cdaVQSIFQJUAmK3VUr1PLFXgHm&#xA;vzp5l816gb7Xb57qQE+lEfhiiB/ZjjHwqPlue9cVeyflN/5ILzJ/21x+qyxVJf8AnKv/AMmHp3/b&#xA;Ih/6ibjFXjOKvb/ym/8AJFfmh/2zr3/uny4qqf8AOLX/AJLSX/toz/8AJuLFXsGKuxV2KuxV4L/z&#xA;lt/yjugf8xkv/JrFXsHkn/lDNA/7Z1p/yYTFU6xVBaromjavB9X1Wwt7+D/fVzEky/QHDYq881//&#xA;AJxx/LDVizwWc2lTN+3YylRX/jHIJYx9CjFWB3f/ADjN5x0SdrzyZ5qMcw3VXMtnJQfs+rAZA30q&#xA;BiqVa/5g/wCclfKui3tvrUT3elvC8Ul+YoLoRxsOLSerDVl2PWXFWZfkP5h8jeZ/yauPy98wXF1p&#xA;psrhpZbyONvS4STG4jcz+nJFHRvhYSU9vZVG3v8AzjJJfWpv/J/may1izfeIvQKR4CaAzox+gYqw&#xA;LXvya/MvQ+TXehXEsK/7vtALpKDufRLlR/rAYqw2SOSKRo5EKSKaMjAgg+BBxVbirsVdir7etv8A&#xA;yYeif+A7df8AUTZ4q+KtS/46N1/xmk/4kcVT/wAj/lv5s86Xno6NaE26Glxfy1S3i/1npuf8lat7&#xA;Yq+gvJf5X+TPJd2sNrbHzZ5ziozkhVgtGIBVnY8o7YdCC/KU9UU9MVZTqvl7y95nvH8ueddRj1S/&#xA;uoWm/wAO2sssFtDCKfEyRMskjDkKSTNud0VOmKvLvN9sPLn/ADjhY6TpMklvaRatdWRCsQzwrfXf&#xA;wuR15FAT44q+fcVdir6A/Kb/AMkF5k/7a4/VZYqkv/OVf/kw9O/7ZEP/AFE3GKvGcVe3/lN/5Ir8&#xA;0P8AtnXv/dPlxVU/5xa/8lpL/wBtGf8A5NxYq9gxV2KuxV2KvBf+ctv+Ud0D/mMl/wCTWKvYPJP/&#xA;AChmgf8AbOtP+TCYqnWKuxV2KuxVLfMyq3lvVVYAqbO4BB3BBibFXn35PeabjyV/zjFb+YdNtYZb&#xA;pb6UyxyhuMhkvPRLMUKnl6YAB9hirdn+fX5aazcCfzL5WfT9RegbVdPYeuD4/WIja3KD2VjirP8A&#xA;QfOflXUiv+GPP/psdo9N1kLOlf8Ao5+rXrn/AKODiqb6xpGo6hER5i8qaZ5lhp8FxZPGLhh2Kw3o&#xA;jSP6Lo4q87178pfyWut5W1Dybct/y2rLDbBz+z610r27/KObFWMav/zi75jEIuvLms2WsWrjlGWr&#xA;AzDtxIM0bfPmMVeea9+V35g6CWOpaFdxxJ9qeJPXhHzlh9RB9+KvrW2/8mHon/gO3X/UTZ4q8m8u&#xA;/kFomkz/AKa/MK8B+sTMbPQrYtI8rklhGfSDSzPT/dcI+kiuKvTr2dbDQxPqs0fkjyfaqFjsYGWO&#xA;9kX+RpIarb8v5LflIeokU1XFXjPnP/nIUxWZ0L8vbNdG0pKr9fKKJ35faaNNwhYmpdqueuxxVCf8&#xA;4zXFxc/mhc3FxK808un3DyyyMXdmMkVSzGpJOKsm/NP/AMkPb/8AbfvP+o69xV874q7FX0B+U3/k&#xA;gvMn/bXH6rLFUl/5yr/8mHp3/bIh/wCom4xV4zir2/8AKb/yRX5of9s69/7p8uKqn/OLX/ktJf8A&#xA;toz/APJuLFXsGKuxV2KuxV4L/wA5bf8AKO6B/wAxkv8AyaxV7B5J/wCUM0D/ALZ1p/yYTFU6xV2K&#xA;uxV2Kpd5k/5R3VP+YOf/AJNNiryHy5/6x1F/zGt/3UTirxvFXYqnWh+dPNugkfofV7uxQGvpRSuI&#xA;j8468D9IxV6NoX/OT3n+x4pqkNpq8P7Zkj9CUj2aHig/5FnFWUaR+dX5P6hOZ9S0K58tajMazX2m&#xA;O8RY/wDFk9k1tM/+yQ4q9C0DzNYaiqjyt5+ttQZ/7ux1eOGaQDsqrGbC5H+tJzOKsB1vTfz01b8/&#xA;dJhF7ZaFbWmlzyRajYxtcwPYmaMXCOlwBymeX0hx2AFGHQnFUd5w/Obyh5MuLmHQi/mbzcVMF1rN&#xA;2wdEIO6F0CLxDb+lbqkdfA4q8A81ecvMnmrUTf67evdzCvpIfhiiU/sxxj4VHy698VSTFXr3/OL3&#xA;/kyZf+2dP/ycixVlX5p/+SHt/wDtv3n/AFHXuKvnfFXYq+gPym/8kF5k/wC2uP1WWKpL/wA5V/8A&#xA;kw9O/wC2RD/1E3GKsd/K78mfMHnedbt66f5ejak+ouu78eqQKftt4t9lfnsVXqHn6eHQPy1n0byV&#xA;5dnufIZKjzT5hgkiEkliWC3j2wdlkuGeJSrSgemFPw1A+FVj3/OLX/ktJf8Atoz/APJuLFXsGKux&#xA;V2KuxV4L/wA5bf8AKO6B/wAxkv8AyaxV7B5J/wCUM0D/ALZ1p/yYTFU6xV2KuxV2Kpd5k/5R3VP+&#xA;YOf/AJNNiryHy5/6x1F/zGt/3UTirxvFXYq7FXYq7FXYq+3rb/yYeif+A7df9RNnir4q1L/jo3X/&#xA;ABmk/wCJHFUNirsVevf84vf+TJl/7Z0//JyLFWVfmn/5Ie3/AO2/ef8AUde4q+d8Vdir6A/Kb/yQ&#xA;XmT/ALa4/VZYq9C/MP8ALPyxrPnG383earofoawsobSLTVDc7i4E8rhTw+N+XqqqRxgs7bexVRvm&#xA;DUdJ0/QRqPm4ponlW3UR2XltePqXAA+BLhI6h6gbW8fwAbyFhsirFU/Mqbz3+U/5lXa2i2VhZaVf&#xA;QWEA3f0zYSmshG3I+A2HTfrir58/LH86bb8uJNS8s3Vv+mdES+la31G0YI5APpmREcAOkgjVlqy0&#xA;/Uq948r/AJ1flv5j4JaaxHbXT0H1S9/0aSp/ZHOiOf8AUY4qzgEEAg1B3BGKt4q7FXgv/OW3/KO6&#xA;B/zGS/8AJrFXsHkn/lDNA/7Z1p/yYTFU6xV2KuxV2Kpd5k/5R3VP+YOf/k02KvIfLn/rHUX/ADGt&#xA;/wB1E4q8bxV2KuxV2KuxV2Kvt62/8mHon/gO3X/UTZ4q+KtS/wCOjdf8ZpP+JHFUNirsVevf84vf&#xA;+TJl/wC2dP8A8nIsVZV+af8A5Ie3/wC2/ef9R17ir53xVNPLflnXPMmqxaVo1q93eS/sKPhVa0Lu&#xA;x2RRXcnFXtHnqDS/yv8AyYufIP6TjvfOXmmdDb2sJ4lZJ3ijaQbhkjRYqK7U5N0HWirKdY8zWf5W&#xA;aJp8nmvVJ/N/n829bX1yFSIMPTZowFCxR/CVaShkk7n+VV87+cPOvmLzdqzanrdyZ5txDEvwxQoT&#xA;XhEn7I/E9yTir1L8pv8AyRX5of8AbOvf+6fLiqF/5xr0LRNS/K+6i1HT7a8jn1GYTJPEkgcLHHx5&#xA;cga8amnhiqZ+aP8AnGb8vNW5y6YJ9EumqQbZvUh5HuYpeW3sjLirBT+U357+RXMnk/WjqNihqttD&#xA;KEqB3a0uaw1/1WY4qi9O/wCclPOGgXS6f588tPHKNjNEj2s1B1b0pqo/+xZRir07yv8Anf8Alr5i&#xA;4JbaulndP/x6X/8Aoz1PYM59Nj7K5xVgH/OWro3lzy+VYENdylaHqPSG4+/FXsPkn/lDNA/7Z1p/&#xA;yYTFU6xV2KuxV2Kpd5k/5R3VP+YOf/k02KvIfLn/AKx1F/zGt/3UTirxvFXYq7FXYq7FXYq+3rb/&#xA;AMmHon/gO3X/AFE2eKvirUv+Ojdf8ZpP+JHFUNirsVevf84vf+TJl/7Z0/8AycixVlX5p/8Akh7f&#xA;/tv3n/Ude4q8w/LT8pPMnnq8DWymz0eJqXWqSqeAp1SIbeo/sNh3IxV9JeUdA0jRNMk0byLGltZo&#xA;SureapgsnJ46h/RLDjPIhqK/3UZr9ohkxVJPM9h+XHmDyBrN7o0EOoy6XqFur61IoluJL2CW3kMq&#xA;3TgyP8MgTkDSlVX4aYq81/5yr/8AJh6d/wBsiH/qJuMVeM4q9v8Aym/8kV+aH/bOvf8Auny4qqf8&#xA;4tf+S0l/7aM//JuLFXsGKuxVDajpem6nataajaQ3tq/24LiNZUPzVwRirzDzR/zjT+XWsc5dPjm0&#xA;S6bflavyhJ94ZOQp7IVxV4F+bH5T+YfIbWIvL9dS0q45pZXC8k4MtGZDExbhUGvwkjFWZeR/+cjP&#xA;MvlnRdM07zFojXulxxLFZX684Jnhj+FTVw0c3EDjUcfc1xV7F5X/AD4/LPzBwjj1QaddPT/RdRH1&#xA;dqnoPUJMJPsHxVn8ckciLJGweNwCrqQQQehBGKrsVdiqXeZP+Ud1T/mDn/5NNiryHy5/6x1F/wAx&#xA;rf8AdROKvG8VdirsVdirsVdir7etv/Jh6J/4Dt1/1E2eKvirUv8Ajo3X/GaT/iRxVDYq7FXr3/OL&#xA;3/kyZf8AtnT/APJyLFXrWm6N5Q8z/lmkOvXYTR9M1vUZr4K/CskOo3SiBz9ocjINl+JtuPUYqnOp&#xA;XGmWnl/6zrJXyx5Gs1CQaYB6E90gHwpMiUaNH/5Z0+Nh/eUq0eKvn/8ANH879U80odF0VDpHlaIC&#xA;KO0jokk6Lsvq8dlQAbRrt412oqy/8pv/ACQXmT/trj9VliqS/wDOVf8A5MPTv+2RD/1E3GKvGcVe&#xA;3/lN/wCSK/ND/tnXv/dPlxVU/wCcWv8AyWkv/bRn/wCTcWKvYMVdirsVdirwX/nLb/lHdA/5jJf+&#xA;TWKvWfK1hY3/AJD0O1vreK6tpNNtBJBOiyRt+4TqrAg4qw3zR/zjh+W+tc5bS2k0W6ap9Syakdfe&#xA;F+aU9k44q8/k/JH85vJcpn8keYDeWyElbaOU27N3+K3mLW7fS2Kqtp/zkN+Yvla4Sx8+eW2ffiLg&#xA;I9nK1OrCoaGX/YcRir0ryv8An5+Wev8ACMamNMum/wCPfUQLc/8AI2rQn/g8VZhr8sUvlnUpYnWS&#xA;N7Oco6kMpBibcEYq8k8uf+sdRf8AMa3/AHUTirxvFXYq7FXYq7FXYq+3rb/yYeif+A7df9RNnir4&#xA;q1L/AI6N1/xmk/4kcVQ2Ko/RND1fXNSh0zSbWS8vpzSOGMVPuSeiqO5OwxV9FeUvJ+kfk7pU+u6j&#xA;Hc+YPOlxav6OjaXHJPIsVQzKiIGPDko5zuAo6DfZlWOflfbeWfJ35e3H5x6/p7X3mTzBfXM9paV+&#xA;C3kluJURIg1VjZuLFpaFgp4juCq8u88/mD5k86aob/WJ6ohItbOOqwQKe0a1O/ix3OKsaxV9AflN&#xA;/wCSC8yf9tcfqssVSX/nKv8A8mHp3/bIh/6ibjFXjOKvb/ym/wDJFfmh/wBs69/7p8uKqn/OLX/k&#xA;tJf+2jP/AMm4sVewYq7FXYq7FXgv/OW3/KO6B/zGS/8AJrFXsHkn/lDNA/7Z1p/yYTFU6xV2KqN3&#xA;Z2d7bvbXkEdzbyCkkMyLIjDwKsCDirzXzR/zjn+Wut85ba0fRrpt/VsG4JX3hcPGB/qhcVeW+Zfy&#xA;K/MzyfpGo3HlvzBJeaMsMj3lrbyTWsrxAEuDApeN/h/yqnwxVnP/ADjnrVlr/wCU135N8x+WtSvP&#xA;L1pcuV1WyimlhYu/r8CID65kjkNaRq2xHIDuqmeof847eVdbMz+R/MyNcRby6ZfUaSI/yy8Ak0Py&#xA;eKuKvN/M/wCTn5i+XOb32jyzWqbm7s/9Iip/MTHVkH+uBirCyCDQ9cVaxV2KuxV9vW3/AJMPRP8A&#xA;wHbr/qJs8VfFWpf8dG6/4zSf8SOKsn/Lv8r/ADL551D0dOj9HT4mAvNTlB9GIdSB/O9OiL9NBvir&#xA;6W8m+VdI8s20uheR4EkvB+71nzRcqHRJE2ZBSnrSqekKEIn7Z5fCyqt5R87+TX86TeUtAd9Uv/Qk&#xA;utY113EhlliKoFaUD943x/sUjQfCgpsqrzv80QF/Ia2AFANfvAAOgH169xV874q7FX0B+U3/AJIL&#xA;zJ/21x+qyxVJf+cq/wDyYenf9siH/qJuMVeP2lpdXl1FaWkTz3U7iOGGMFnd2NFVVG5JOKvo6y8l&#xA;3Xkb8o9S8qzOLvzl57jlsbPS4jy4vcw+g32a/BbRu0k0n2R08Kqse/5xa/8AJaS/9tGf/k3Fir2D&#xA;FXYq7FXYq8F/5y2/5R3QP+YyX/k1ir2DyT/yhmgf9s60/wCTCYqnWKuxV2KuxVLvMn/KO6p/zBz/&#xA;APJpsVec/lf5p1Xyp/zixaa3pBjS+gvJQpkQOhD35Rgw26qaYq6w/wCcjPLWt+jF558sRTPF/dah&#xA;ZgO8ROxaNZCssR/yklrir0jyx5r8v6vwHk3zsGkb7Oj6zW6PgQvrtBfE/wCV67qPDFV/mXyzouq8&#xA;m85+SUuXI+PVtHJum+bCMW99XvxWOQDxxV5vqH/OPHlDXHm/wT5lC3cQrLpV+Kyxk9pFAjnh+TxE&#xA;4q848z/kv+Y/l3m93pElzapU/W7L/SY6D9o8PjQf66jFWEEEEgihGxBxV9u23/kw9E/8B26/6ibP&#xA;FXg/kT8i59WmufMnnGX9D+WIZJJuMrelLPGGJ5EtT0oj/Mdz+z15Yq9sY6baeXuUhHlLyFYLsnxW&#xA;t1dJ2rSktvG/8v8AfyHrw6Mq8G/M3887vW7b/DvlSI6N5WhX0FjiURSTRrsFITaOKnRF+nwCqr/z&#xA;i9/5MmX/ALZ0/wDycixVlX5p/wDkh7f/ALb95/1HXuKvnfFXYq+gPym/8kF5k/7a4/VZYql3/OTO&#xA;m3+p/mjpGn6fbvdXtzpcEcEEQ5OzG5udgBirLvJHknTPyxtbQzWi67+ZWsow07TYiKQqB8Z9Q1EU&#xA;Mdf305/1VqSAyr0zyd5Ol0mW41nWbhdT816mqjUtSClURFNUtbVDUxW8RPwr1Y/E1WOKvCf+cWv/&#xA;ACWkv/bRn/5NxYq9gxV2KuxV2KvBf+ctv+Ud0D/mMl/5NYq9g8k/8oZoH/bOtP8AkwmKp1irsVdi&#xA;rsVS7zJ/yjuqf8wc/wDyabFXkPlz/wBY6i/5jW/7qJxV43irsVZl5Y/N/wDMPy5wTT9YmktU/wCP&#xA;S6P1iGn8oWTkUH+oRir0jT/+cjtB1hIYPPXliG7MRrHfWgVmjbpyjjmPOM/5SS1xV6P5Y83eWdW4&#xA;L5O86lJmoE0fWeV0K9wPrDQ3rH3FwyjwxVE+ZPLematy/wAY+SYr4tUPq2kMJ3Cj9p6C2vQT/LGs&#xA;nzxVgevfnhbQ/nVomj+U9EvNfni0+fTLuy9OSynR5pIZ1IW7SMgRLb1cvxWhrXbFWa+dPN2keVbe&#xA;HXPO80dzqoPq6N5atW5xQyL0kHIKZXU/7vkUBf2FBryVfNP5g/mZ5l88aj9Y1OX07KJibPTYifRh&#xA;HStP2np1c7/IbYqxLFXr3/OL3/kyZf8AtnT/APJyLFWVfmn/AOSHt/8Atv3n/Ude4q+d8Vdir338&#xA;rJooP+cfPM80ziOKLVecjtsFVVsyST7DFXq3mrWNFsfMVvd6DZw615/1SzW00qAPySK0V2lNzO68&#xA;vRtlM1Xcbv8ACq1OKp15T8nR6K91qV7cNqfmTU+Lapq0ihS3H7MMKb+lbx1Ppxg+5LMSxVZHir5f&#xA;g/KT86PynlvH8km282eWJpvXfS5Kx3ajoSEJUc+NFqjNypXh2xVMvL3/ADkF5Su7s6X5lguPKmtR&#xA;nhNaakjIiv4GUqvH/noq4q9Ntrm3uoEuLaVJ4JByjljYOjDxVlqDiqpirsVeC/8AOW3/ACjugf8A&#xA;MZL/AMmsVeweSf8AlDNA/wC2daf8mExVOsVdirsVdiqXeZP+Ud1T/mDn/wCTTYq8h8uf+sdRf8xr&#xA;f91E4q8bxV2KuxV2KuxVl/ln82fzB8thE03WZzbJQC0uCLiGg7KkvLgP9SmKvqhLGxl/NjSdWa3j&#xA;GoTeXLpZLgKAxUXVqQK+3NqfPFXx55n1bUtX8wX+oajcPc3c07l5ZCSaBiAor0VRsANgMVSvFXYq&#xA;9e/5xe/8mTL/ANs6f/k5FirKvzT/APJD2/8A237z/qOvcVfO+Kpr5a8s615l1iDSNHtzc3s52UbK&#xA;qj7Tu3RVXuTir6OHkuz0byhF+UelP+lNb1qWK88xzAfuLW0eWP6zNL04h4ofShSvJ236BqKvS/Jn&#xA;5eeS/JdpLa+WNKh02KduU7IXkkc9ucsrPIwFdgWoO2KsixV2KuxVIfNnkPyd5us/qnmTSLfU4gKI&#xA;0yfvU/4xyrxkj/2LDFXjOp/84zeY/LU0l/8AlV5ruNLYnm2i6ixltXPhyCsPYc42P+ViqSv+b/nn&#xA;yZOll+aPlOewjLcF1uwHq2rnoDsWT3PGSv8Ak4q9F8sed/Kfmi39fQdTgvgByeJGpMgP88TcZE+l&#xA;cVeQ/wDOW3/KO6B/zGS/8msVeweSf+UM0D/tnWn/ACYTFU6xV2KuxV2Kpd5k/wCUd1T/AJg5/wDk&#xA;02KvIfLn/rHUX/Ma3/dROKvG8VdirsVdirsVdir7etv/ACYeif8AgO3X/UTZ4q+KtS/46N1/xmk/&#xA;4kcVQ2KuxV69/wA4vf8AkyZf+2dP/wAnIsVZV+af/kh7f/tv3n/Ude4q8Q8p+U9b81a3Bo+jwGa6&#xA;mNWY7Rxxj7Ukjfsqv9g3xV9L+X/Ltr5IjHkvyKsd950vUSTW9dnTnDYREf304B69fQtq1Y/E3w1b&#xA;FXo3lbynpnlyylhtTJcXd3IbjUtRuDzubq4YUaWZ9qnaiqKKo+FQAKYqnWKuxV2KuxV2KuxVZPbw&#xA;XELwXEazQSqVkikUMjKdiGU1BBxV5B5x/wCcXfy71q4Oo6D6/lPWlPOK70tuEQfsTBUKP+eZT54q&#xA;8e/Mv8hP+cgr7TjBf6pB5n0rRY5LiyaNgtzJt8S+mYxJJLxGwLN7GuKss/K786vJt1omm6Bq9yNE&#xA;12wgjs57W9BhRnhUR1WR6KC3EfCxBrtvir1lWV1DKQysKqw3BB7jFW8VdirsVS7zJ/yjuqf8wc//&#xA;ACabFXkPlz/1jqL/AJjW/wC6icVeN4q7FXYq7FXYq7FX29bf+TD0T/wHbr/qJs8VfFWpf8dG6/4z&#xA;Sf8AEjiqGxV2KvXv+cXv/Jky/wDbOn/5ORYq9H8weTtZ83/lLYaLpKKbmXXr13kkPGOONb695SOd&#xA;zQV7b4qmHl/RYPK8EnkH8vgkvmIoknmPzNMgeKy5j4XkHR5ypPoW9aAfE+32lXonlbytpXlrSl07&#xA;TldgztNd3czepcXNxJvJcXEh3eRz1P0CgAGKpvirsVdirsVdirsVdirsVdirsVYp52/KzyD51hKe&#xA;Y9Ggu56cUvVHpXSAdOM8fGSg/lrT2xV5Be/849/mR5Mdrn8r/Nbz2Knl/h7VyGQjqVR6GKrf6kZ/&#xA;ysVS2D889W8uXiaX+Z3lm78uXh+Fb+JGltJD3Zacqr/xjaTFXpuheZfL+v2n1vRdQg1C325PA4cq&#xA;T2dR8Sn2YVxVMsVS7zJ/yjuqf8wc/wDyabFXkPlz/wBY6i/5jW/7qJxV43irsVdirsVdirsVfb1t&#xA;/wCTD0T/AMB26/6ibPFXxVqX/HRuv+M0n/EjiqGxV2KvZv8AnFrT72Tz5d3yQO1nb2Esc1xT4FeS&#xA;SPgpbpybiaD2xVnP5eX/AOb+raXd6RplpZ6b5bm1TUzZ+bzMktwtqdRuPUWGzowaYOCI3f4KUNG7&#xA;qvXvLnlvSPLulrpulQmKAM0sruzSSzTSHlJNNK5LySO27MxriqZ4q7FXYq7FXYq7FXYq7FXYq7FX&#xA;Yq7FXYqhtS0zTdUspLHUrWG9sphSW2uI1licf5SOCpxV415p/wCcVvKc94dW8k6jdeTtaUlo3s3Z&#xA;7Yk70MZZXQH/ACHC/wCScVYnd6t/zkB+XnIeatDTzfoUXXWNL/vlQftSKihhxHXnEP8AXOKphF+d&#xA;35ceYvLGqGDVEsbr6nPysr+lvMCY2HFako5r2RjirHfLn/rHUX/Ma3/dROKvG8VdirsVdirsVdir&#xA;7etv/Jh6J/4Dt1/1E2eKvirUv+Ojdf8AGaT/AIkcVQ2KvQvyq/J/WvPN4Lh+Vl5egal3qBG7EdY4&#xA;ARRn8T0Xv2BVe9aNaR6zYDyr5AB0fyPaM0WpeZIdprxxQSxae5+0W3WS6NQOiVO6qvSNH0jTdG0u&#xA;10rTIFtdPso1htbdakIiCgFWJJ9yTU98VRmKuxV2KuxV2KuxV2KuxV2KuxV2KuxV2KuxV2KuxV2K&#xA;sD87fkb+WHnORrjWdFiW+ZuTX9pW2uGP+W8fH1P9mDiqVaT5C1/yFp1zoflrTbXzL5KmcypoV7P6&#xA;V5AZKGVIpJke3njZxzCylKEn4jirDtd8jfklrt0La7iu/wAv9fnP7u1vo/qcTuT0j9QvZy96C3lx&#xA;Vhfmn/nGzz7pIafSjFrtmN1a2Ppz8fEwufwRmxV5df6dqGnXLWuoW0tpdJ9uCdGjcfNWAOKobFXY&#xA;q7FX29bf+TD0T/wHbr/qJs8VfFWpf8dG6/4zSf8AEjir0/8AKn8lzrlufM/myQaX5RtVM7yTN6Ju&#xA;ET4mPNivpw0+1JX/AFfEKvbdO02fzxZQWltbPof5ZwKEtbJFMFxq0S/ZLKKPb2R7Ls8o68UNGVej&#xA;21tb2tvFbW0SQW8KiOGGNQiIiiiqqrQAAdAMVVMVdirsVdirsVdirsVdirsVdirsVdirsVdirsVd&#xA;irsVdirsVdiqhfWFjf2slpfW8V3aTDjLbzoskbjwZGBU/TirED+V1nprer5P1W98ruNxaWzi404n&#xA;fY2Nz6kKA1/3T6Z98VS3W4vNTW31Tzp5SsvN+mLsb/SAonQdORsLtuan/jDcO3gMVecXX5O/lN5t&#xA;uZIfKGuyaLrQHKTQr9XWZO9Da3Po3SeHL4hirz7zV+RX5j+XeckmmnUbNN/rWnkzrTxMYAlHzKUx&#xA;VgDKysVYEMDQg7EEYq+3bb/yYeif+A7df9RNnirxjyR+Tuk6XFc+ePzHZbLRoJWltdMmBLSln/dm&#xA;aMBmbmTRIQOTnt2Kr1qw8uap5xuLfVPNVqdP8u2zLJo3lFqCvA/u7jUlX4WcUBS3+xH+1yf7KrP8&#xA;VdirsVdirsVdirsVdirsVdirsVdirsVdirsVdirsVdirsVdirsVdirsVdirsVSvX/KvlvzDbrb65&#xA;ptvqMSHlF9YjV2jb+aNyOSMP5lIOKsc/wL5l0b4vKPma4hgX7Oj60G1SzoBsiSuyXsf/ACPYD+XF&#xA;WN+abTSr9WH5k+Q2FAA3mHRQ2oRAAbuzW6xahGo60aEqPE0xVKLr80brVPzFsbz8ttFl856bo+mS&#xA;6drLwSLaJFJdzRPCFluQis6/VviHSh67Yqz7QPKer6lqcHmjzqI31eGraTosLmSz0sMCKoxCie5K&#xA;n45yu32UCrXkqzTFXYq7FXYq7FXYq7FXYq7FXYq//9k=</xmpGImg:image>
               </rdf:li>
            </rdf:Alt>
         </xmp:Thumbnails>
      </rdf:Description>
      <rdf:Description rdf:about=""
            xmlns:xmpMM="http://ns.adobe.com/xap/1.0/mm/"
            xmlns:stRef="http://ns.adobe.com/xap/1.0/sType/ResourceRef#"
            xmlns:stEvt="http://ns.adobe.com/xap/1.0/sType/ResourceEvent#">
         <xmpMM:InstanceID>xmp.iid:F6F25F0A17206811822AB07F030AAF4B</xmpMM:InstanceID>
         <xmpMM:DocumentID>xmp.did:F6F25F0A17206811822AB07F030AAF4B</xmpMM:DocumentID>
         <xmpMM:OriginalDocumentID>uuid:5D20892493BFDB11914A8590D31508C8</xmpMM:OriginalDocumentID>
         <xmpMM:RenditionClass>proof:pdf</xmpMM:RenditionClass>
         <xmpMM:DerivedFrom rdf:parseType="Resource">
            <stRef:instanceID>xmp.iid:0580117407206811822AB07F030AAF4B</stRef:instanceID>
            <stRef:documentID>xmp.did:0580117407206811822AB07F030AAF4B</stRef:documentID>
            <stRef:originalDocumentID>uuid:5D20892493BFDB11914A8590D31508C8</stRef:originalDocumentID>
            <stRef:renditionClass>proof:pdf</stRef:renditionClass>
         </xmpMM:DerivedFrom>
         <xmpMM:History>
            <rdf:Seq>
               <rdf:li rdf:parseType="Resource">
                  <stEvt:action>saved</stEvt:action>
                  <stEvt:instanceID>xmp.iid:0180117407206811822AB07F030AAF4B</stEvt:instanceID>
                  <stEvt:when>2014-06-01T03:22:45+09:00</stEvt:when>
                  <stEvt:softwareAgent>Adobe Illustrator CS6 (Macintosh)</stEvt:softwareAgent>
                  <stEvt:changed>/</stEvt:changed>
               </rdf:li>
               <rdf:li rdf:parseType="Resource">
                  <stEvt:action>saved</stEvt:action>
                  <stEvt:instanceID>xmp.iid:F6F25F0A17206811822AB07F030AAF4B</stEvt:instanceID>
                  <stEvt:when>2014-06-02T00:27:26+09:00</stEvt:when>
                  <stEvt:softwareAgent>Adobe Illustrator CS6 (Macintosh)</stEvt:softwareAgent>
                  <stEvt:changed>/</stEvt:changed>
               </rdf:li>
            </rdf:Seq>
         </xmpMM:History>
      </rdf:Description>
      <rdf:Description rdf:about=""
            xmlns:illustrator="http://ns.adobe.com/illustrator/1.0/">
         <illustrator:StartupProfile>Print</illustrator:StartupProfile>
      </rdf:Description>
      <rdf:Description rdf:about=""
            xmlns:xmpTPg="http://ns.adobe.com/xap/1.0/t/pg/"
            xmlns:stDim="http://ns.adobe.com/xap/1.0/sType/Dimensions#"
            xmlns:xmpG="http://ns.adobe.com/xap/1.0/g/">
         <xmpTPg:HasVisibleOverprint>False</xmpTPg:HasVisibleOverprint>
         <xmpTPg:HasVisibleTransparency>False</xmpTPg:HasVisibleTransparency>
         <xmpTPg:NPages>1</xmpTPg:NPages>
         <xmpTPg:MaxPageSize rdf:parseType="Resource">
            <stDim:w>34.625000</stDim:w>
            <stDim:h>35.737793</stDim:h>
            <stDim:unit>Points</stDim:unit>
         </xmpTPg:MaxPageSize>
         <xmpTPg:PlateNames>
            <rdf:Seq>
               <rdf:li>Cyan</rdf:li>
               <rdf:li>Magenta</rdf:li>
               <rdf:li>Yellow</rdf:li>
               <rdf:li>Black</rdf:li>
            </rdf:Seq>
         </xmpTPg:PlateNames>
         <xmpTPg:SwatchGroups>
            <rdf:Seq>
               <rdf:li rdf:parseType="Resource">
                  <xmpG:groupName>Default Swatch Group</xmpG:groupName>
                  <xmpG:groupType>0</xmpG:groupType>
               </rdf:li>
            </rdf:Seq>
         </xmpTPg:SwatchGroups>
      </rdf:Description>
      <rdf:Description rdf:about=""
            xmlns:pdf="http://ns.adobe.com/pdf/1.3/">
         <pdf:Producer>Adobe PDF library 10.01</pdf:Producer>
      </rdf:Description>
   </rdf:RDF>
</x:xmpmeta>
                                                                                                    
                                                                                                    
                                                                                                    
                                                                                                    
                                                                                                    
                                                                                                    
                                                                                                    
                                                                                                    
                                                                                                    
                                                                                                    
                                                                                                    
                                                                                                    
                                                                                                    
                                                                                                    
                                                                                                    
                                                                                                    
                                                                                                    
                                                                                                    
                                                                                                    
                                                                                                    
                           
<?xpacket end="w"?>
	</metadata>
<path d="M307.419,291.248v-6.553c0-0.134-0.067-0.276-0.181-0.349c-0.064-0.043-0.151-0.087-0.228-0.103
	c-0.035-0.006-0.429-0.064-0.697-0.103c-0.009-0.002-0.018-0.005-0.026-0.006l-6.165-0.889c-0.146-0.012-0.273-0.035-0.467,0.035
	l-0.294,0.11c-0.031-0.149-0.112-0.263-0.27-0.285l-5.418-0.786c-0.134-0.012-0.221,0-0.361,0.035l-0.28,0.09
	c-0.041-0.142-0.173-0.249-0.325-0.271l-4.275-0.605c-0.019-0.002-0.038-0.004-0.057-0.004c-0.034,0-0.067,0.004-0.1,0.013
	l-3.141,0.817c-0.164,0.042-0.271,0.184-0.292,0.349c-0.204-0.032-0.342-0.053-0.378-0.058c-0.219-0.026-0.413,0-0.446,0.009
	l-3.983,1.036c-0.168,0.044-0.285,0.192-0.294,0.363l-0.396-0.069c-0.023-0.003-0.291-0.033-0.508,0.026l-4.622,1.21l-0.006-0.002
	c-0.006-0.001-0.07,0.017-0.164,0.046l-0.082,0.021c0.001,0-0.001,0.002-0.003,0.005c-0.307,0.097-0.792,0.257-0.808,0.264
	c-0.097,0.04-0.145,0.06-0.216,0.119c-0.092,0.075-0.145,0.24-0.145,0.358v7.068c0,0.126,0.061,0.241,0.157,0.314
	c-0.001,0-0.001,0.001-0.002,0.002c-0.097,0.075-0.154,0.19-0.154,0.313v7.221c0,0.129,0.063,0.247,0.163,0.32
	c-0.102,0.074-0.163,0.193-0.163,0.32v6.941c0,0.16,0.097,0.305,0.245,0.366l5.802,2.398c0.049,0.021,0.1,0.03,0.151,0.03
	c0.078,0,0.154-0.022,0.22-0.066c0.007-0.005,0.013-0.01,0.02-0.016c0.023,0.131,0.112,0.244,0.238,0.297l6.501,2.686
	c0.049,0.021,0.1,0.03,0.151,0.03c0.078,0,0.154-0.022,0.22-0.067c0.007-0.004,0.013-0.01,0.019-0.015
	c0.025,0.137,0.12,0.253,0.254,0.303l7.549,2.759c0.045,0.016,0.091,0.023,0.136,0.023c0.08,0,0.16-0.024,0.228-0.071
	c0.087-0.061,0.145-0.153,0.162-0.255c0.023,0.018,0.049,0.033,0.076,0.046c0.053,0.024,0.108,0.036,0.164,0.036
	c0.094,0,0.187-0.034,0.26-0.099l4.544-3.967c0.087-0.076,0.136-0.185,0.136-0.299v-0.242c0.023,0.018,0.049,0.033,0.077,0.045
	c0.051,0.021,0.103,0.032,0.155,0.032c0.101,0,0.198-0.038,0.274-0.109l3.494-3.336c0.079-0.075,0.123-0.179,0.123-0.287v-0.242
	c0.024,0.018,0.049,0.033,0.077,0.045c0.051,0.021,0.104,0.032,0.156,0.032c0.1,0,0.198-0.038,0.273-0.11l2.796-2.675
	c0.079-0.075,0.123-0.178,0.123-0.286v-6.299c0-0.151-0.086-0.289-0.222-0.356c-0.011-0.005-0.021-0.009-0.033-0.013l0.101-0.077
	c0.098-0.075,0.154-0.191,0.154-0.314v-6.547c0-0.143-0.077-0.275-0.202-0.345c-0.005-0.003-0.009-0.004-0.014-0.007l0.024-0.015
	C307.346,291.515,307.419,291.386,307.419,291.248z"/>
<path fill="#FFFFFF" d="M284.429,283.077c-0.109-0.017-0.286-0.008-0.393,0.02l-3.3,0.864c-0.107,0.028-0.105,0.066,0.004,0.085
	l4.097,0.715c0.109,0.02,0.284,0.007,0.389-0.027l2.98-0.96c0.105-0.034,0.102-0.076-0.007-0.093L284.429,283.077z"/>
<path fill="#FFFFFF" d="M288.542,281.957c-0.109-0.015-0.286-0.005-0.393,0.023l-2.47,0.648c-0.106,0.028-0.104,0.064,0.004,0.081
	l3.792,0.557c0.109,0.016,0.285,0.002,0.39-0.03l2.216-0.691c0.105-0.033,0.103-0.072-0.007-0.087L288.542,281.957z"/>
<path fill="#FFFFFF" d="M293.725,282.729c-0.109-0.016-0.285,0-0.39,0.033l-2.137,0.688c-0.104,0.034-0.102,0.076,0.007,0.093
	l4.808,0.769c0.109,0.018,0.283,0,0.387-0.039l2.053-0.768c0.104-0.039,0.099-0.083-0.011-0.099L293.725,282.729z"/>
<path fill="#FFFFFF" d="M289.924,283.956c-0.109-0.018-0.284-0.004-0.389,0.03l-3.02,0.973c-0.105,0.034-0.102,0.077,0.007,0.096
	l5.113,0.892c0.109,0.019,0.283,0.002,0.387-0.036l2.845-1.064c0.104-0.039,0.099-0.084-0.011-0.102L289.924,283.956z"/>
<path fill="#333333" stroke="#FFFFFF" stroke-width="0.5" stroke-miterlimit="10" d="M300.094,283.645
	c-0.109-0.016-0.283,0.003-0.387,0.042l-2.091,0.782c-0.104,0.039-0.099,0.085,0.01,0.102l6.018,0.962
	c0.108,0.018,0.28-0.004,0.382-0.048l2.021-0.877c0.101-0.044,0.095-0.093-0.015-0.109L300.094,283.645z"/>
<path fill="#333333" stroke="#FFFFFF" stroke-width="0.5" stroke-miterlimit="10" d="M296.469,285.003
	c-0.108-0.018-0.282,0-0.386,0.039l-2.878,1.076c-0.103,0.039-0.099,0.085,0.01,0.105l6.303,1.099
	c0.109,0.019,0.28-0.001,0.382-0.045l2.718-1.181c0.102-0.043,0.096-0.094-0.014-0.111L296.469,285.003z"/>
<path fill="#333333" stroke="#FFFFFF" stroke-width="0.5" stroke-miterlimit="10" d="M292.086,286.645
	c-0.108-0.019-0.282-0.003-0.385,0.036l-3.956,1.479c-0.103,0.039-0.099,0.088,0.009,0.109l6.63,1.28
	c0.108,0.021,0.279,0.002,0.382-0.042l3.748-1.628c0.102-0.044,0.095-0.095-0.014-0.114L292.086,286.645z"/>
<path fill="#FFFFFF" d="M285.274,285.456c-0.108-0.019-0.283-0.007-0.389,0.027l-4.138,1.333c-0.105,0.034-0.102,0.079,0.006,0.1
	l5.461,1.055c0.109,0.021,0.282,0.006,0.385-0.033l3.916-1.464c0.103-0.039,0.099-0.086-0.01-0.105L285.274,285.456z"/>
<path fill="#FFFFFF" d="M279.321,284.418c-0.108-0.02-0.285-0.012-0.392,0.016l-4.485,1.175c-0.106,0.028-0.105,0.068,0.003,0.089
	l4.671,0.902c0.108,0.021,0.283,0.01,0.388-0.023l4.091-1.318c0.105-0.034,0.102-0.077-0.006-0.096L279.321,284.418z"/>
<g>
	<path fill="#D1D1D1" d="M273.388,286.111c-0.108-0.021-0.197,0.052-0.197,0.163v6.667c0,0.111,0.087,0.224,0.194,0.251l5.413,1.413
		c0.107,0.028,0.194-0.04,0.194-0.15V287.4c0-0.11-0.089-0.218-0.197-0.239L273.388,286.111z"/>
</g>
<g>
	<path fill="#D1D1D1" d="M273.381,301.695c-0.104-0.035-0.19,0.026-0.19,0.138v6.539c0,0.11,0.083,0.235,0.186,0.277l5.431,2.245
		c0.102,0.043,0.186-0.014,0.186-0.124v-7.022c0-0.11-0.086-0.229-0.191-0.264L273.381,301.695z"/>
</g>
<g>
	<path fill="#D1D1D1" d="M279.818,287.353c-0.108-0.021-0.197,0.052-0.197,0.163v7.093c0,0.11,0.087,0.224,0.194,0.251l6.112,1.594
		c0.107,0.028,0.194-0.04,0.194-0.15v-7.526c0-0.11-0.089-0.218-0.197-0.239L279.818,287.353z"/>
</g>
<g>
	<path fill="#D1D1D1" d="M279.815,295.489c-0.107-0.027-0.194,0.04-0.194,0.15v7.262c0,0.11,0.086,0.229,0.191,0.264l6.12,2.019
		c0.104,0.035,0.19-0.027,0.19-0.138v-7.711c0-0.11-0.087-0.224-0.194-0.251L279.815,295.489z"/>
</g>
<g>
	<path fill="#D1D1D1" d="M273.385,293.821c-0.107-0.028-0.194,0.04-0.194,0.15v6.819c0,0.111,0.086,0.229,0.19,0.264l5.421,1.79
		c0.104,0.035,0.19-0.027,0.19-0.138v-7.221c0-0.11-0.087-0.224-0.194-0.251L273.385,293.821z"/>
</g>
<g>
	<path fill="#D1D1D1" d="M279.812,303.806c-0.105-0.034-0.19,0.027-0.19,0.138v7.072c0,0.11,0.083,0.234,0.185,0.277l6.13,2.532
		c0.102,0.043,0.186-0.013,0.186-0.123v-7.614c0-0.11-0.086-0.229-0.19-0.264L279.812,303.806z"/>
</g>
<g>
	<path fill="#333333" stroke="#FFFFFF" stroke-width="0.5" stroke-miterlimit="10" d="M286.945,297.339
		c-0.106-0.027-0.194,0.04-0.194,0.15v7.751c0,0.111,0.085,0.229,0.19,0.265l7.167,2.363c0.105,0.035,0.19-0.027,0.19-0.138v-8.274
		c0-0.11-0.087-0.224-0.194-0.251L286.945,297.339z"/>
</g>
<g>
	<path fill="#333333" stroke="#FFFFFF" stroke-width="0.5" stroke-miterlimit="10" d="M286.948,288.73
		c-0.108-0.021-0.197,0.052-0.197,0.163v7.565c0,0.111,0.087,0.224,0.194,0.251l7.161,1.866c0.106,0.028,0.193-0.04,0.193-0.15
		v-8.069c0-0.11-0.088-0.218-0.196-0.239L286.948,288.73z"/>
</g>
<g>
	<path fill="#333333" stroke="#FFFFFF" stroke-width="0.5" stroke-miterlimit="10" d="M286.942,306.146
		c-0.105-0.034-0.19,0.027-0.19,0.138v7.662c0,0.111,0.084,0.232,0.188,0.271l7.173,2.62c0.104,0.039,0.188-0.021,0.188-0.132
		v-7.932c0-0.111-0.085-0.229-0.19-0.264L286.942,306.146z"/>
</g>
<g>
	<g>
		<path fill="#333333" stroke="#FFFFFF" stroke-width="0.5" stroke-miterlimit="10" d="M307.022,292.154
			c0-0.11-0.077-0.154-0.172-0.097l-2.452,1.482c-0.095,0.057-0.172,0.194-0.172,0.305v6.612c0,0.111,0.071,0.146,0.158,0.079
			l2.479-1.912c0.087-0.068,0.159-0.213,0.159-0.324V292.154L307.022,292.154z"/>
	</g>
	<g>
		<path fill="#333333" stroke="#FFFFFF" stroke-width="0.5" stroke-miterlimit="10" d="M307.022,285.038
			c0-0.11-0.083-0.164-0.184-0.12l-2.429,1.068c-0.101,0.044-0.184,0.171-0.184,0.281v6.469c0,0.11,0.077,0.154,0.172,0.097
			l2.452-1.482c0.095-0.057,0.172-0.194,0.172-0.305V285.038L307.022,285.038z"/>
	</g>
	<g>
		<path fill="#333333" stroke="#FFFFFF" stroke-width="0.5" stroke-miterlimit="10" d="M303.598,294.199
			c0-0.11-0.078-0.154-0.173-0.097l-3.15,1.9c-0.095,0.057-0.172,0.194-0.172,0.305v7.293c0,0.11,0.071,0.146,0.158,0.078
			l3.178-2.444c0.087-0.067,0.158-0.213,0.158-0.323L303.598,294.199L303.598,294.199z"/>
	</g>
	<g>
		<path fill="#333333" stroke="#FFFFFF" stroke-width="0.5" stroke-miterlimit="10" d="M303.598,286.526
			c0-0.11-0.083-0.165-0.185-0.12l-3.127,1.372c-0.101,0.044-0.184,0.171-0.184,0.282v7.139c0,0.11,0.077,0.154,0.172,0.097
			l3.151-1.9c0.095-0.057,0.172-0.194,0.172-0.304V286.526L303.598,286.526z"/>
	</g>
	<g>
		<path fill="#333333" stroke="#FFFFFF" stroke-width="0.5" stroke-miterlimit="10" d="M307.022,299.461
			c0-0.11-0.071-0.146-0.159-0.078l-2.478,1.912c-0.088,0.067-0.159,0.213-0.159,0.323v6.415c0,0.11,0.065,0.139,0.146,0.062
			l2.506-2.397c0.08-0.076,0.145-0.229,0.145-0.34V299.461L307.022,299.461z"/>
	</g>
	<g>
		<path fill="#333333" stroke="#FFFFFF" stroke-width="0.5" stroke-miterlimit="10" d="M299.474,305.214
			c0-0.11-0.072-0.146-0.16-0.078l-4.225,3.244c-0.088,0.067-0.159,0.213-0.159,0.323v7.757c0,0.11,0.067,0.141,0.151,0.068
			l4.24-3.703c0.084-0.073,0.151-0.223,0.151-0.333L299.474,305.214L299.474,305.214z"/>
	</g>
	<g>
		<path fill="#333333" stroke="#FFFFFF" stroke-width="0.5" stroke-miterlimit="10" d="M303.598,302.071
			c0-0.11-0.072-0.146-0.159-0.078l-3.177,2.445c-0.088,0.067-0.159,0.212-0.159,0.322v7.17c0,0.11,0.065,0.138,0.146,0.062
			l3.204-3.059c0.08-0.076,0.146-0.229,0.146-0.34V302.071L303.598,302.071z"/>
	</g>
	<g>
		<path fill="#333333" stroke="#FFFFFF" stroke-width="0.5" stroke-miterlimit="10" d="M299.474,288.317
			c0-0.11-0.083-0.164-0.185-0.12l-4.176,1.828c-0.101,0.044-0.184,0.17-0.184,0.281v7.981c0,0.11,0.077,0.154,0.172,0.097
			l4.199-2.526c0.095-0.057,0.173-0.194,0.173-0.304V288.317z"/>
	</g>
	<g>
		<path fill="#333333" stroke="#FFFFFF" stroke-width="0.5" stroke-miterlimit="10" d="M299.474,296.661
			c0-0.11-0.078-0.154-0.173-0.097l-4.199,2.526c-0.095,0.057-0.172,0.194-0.172,0.304v8.146c0,0.11,0.071,0.146,0.159,0.079
			l4.225-3.244c0.088-0.067,0.16-0.213,0.16-0.323V296.661L299.474,296.661z"/>
	</g>
</g>
</svg>
