<?xml version="1.0" encoding="utf-8"?>
<!-- Generator: Adobe Illustrator 16.0.4, SVG Export Plug-In . SVG Version: 6.00 Build 0)  -->
<!DOCTYPE svg PUBLIC "-//W3C//DTD SVG 1.1//EN" "http://www.w3.org/Graphics/SVG/1.1/DTD/svg11.dtd">
<svg version="1.1"
	 id="svg2" xmlns:inkscape="http://www.inkscape.org/namespaces/inkscape" xmlns:rdf="http://www.w3.org/1999/02/22-rdf-syntax-ns#" xmlns:cc="http://creativecommons.org/ns#" xmlns:dc="http://purl.org/dc/elements/1.1/" xmlns:sodipodi="http://sodipodi.sourceforge.net/DTD/sodipodi-0.dtd" inkscape:version="0.48.3.1 r9886" sodipodi:docname="_svgclean2.svg"
	 xmlns="http://www.w3.org/2000/svg" xmlns:xlink="http://www.w3.org/1999/xlink" x="0px" y="0px" width="85.318px"
	 height="80.178px" viewBox="263.341 355.911 85.318 80.178" enable-background="new 263.341 355.911 85.318 80.178"
	 xml:space="preserve">
<sodipodi:namedview  showgrid="false" inkscape:cy="-370.18109" inkscape:cx="372.04724" borderopacity="1" objecttolerance="10" inkscape:zoom="0.22425739" gridtolerance="10" pagecolor="#ffffff" guidetolerance="10" bordercolor="#666666" id="namedview8" inkscape:window-height="480" inkscape:pageopacity="0" inkscape:window-maximized="0" inkscape:window-width="640" inkscape:pageshadow="2" inkscape:current-layer="svg2" inkscape:window-x="0" inkscape:window-y="0">
	</sodipodi:namedview>
<path id="path4" inkscape:connector-curvature="0" d="M263.341,382.432c0-2.57,2.262-3.392,5.243-3.392
	c3.392,0,7.812,2.878,7.812,5.139c0,1.439-1.953,2.57-5.756,2.57C266.014,386.749,263.341,384.898,263.341,382.432z
	 M271.051,406.588c0-6.271,18.297-0.104,18.297-10.382c0-4.317-7.709-5.654-7.709-8.737c0-3.906,14.596,0.411,14.596-6.476
	c0-4.318-7.093-5.037-7.093-10.793c0-1.439,0.822-2.775,2.364-2.775c6.887,0,3.084,13.671,13.466,13.671
	c3.906,0,5.961-2.878,5.961-7.298c0-5.242-2.056-6.99-2.056-12.952c0-2.364,1.439-4.934,4.42-4.934c2.776,0,4.626,2.57,4.626,5.242
	c0,6.887-3.084,7.093-3.084,13.26c0,9.251,4.112,11.513,11.719,11.513c4.317,0,6.476-8.223,10.998-8.223
	c3.599,0,5.037,2.261,5.037,4.625c0,5.654-15.315,1.748-15.315,14.7c0,15.419,21.381,6.476,21.381,16.344
	c0,2.158-1.132,4.009-3.599,4.009c-7.504,0-6.578-7.915-22.1-7.915c-5.654,0-6.682,5.036-6.682,9.251
	c0,5.653,3.906,6.579,3.906,9.662c0,2.57-2.057,3.804-4.42,3.804c-6.682,0,0.616-19.839-12.541-19.839
	c-13.466,0-8.223,23.745-20.456,23.745c-2.57,0-4.317-1.542-4.317-4.317c0-10.484,14.597-10.176,14.597-21.072
	c0-4.009-3.187-5.242-5.859-5.242c-5.242,0-9.045,3.495-12.438,3.495C272.593,408.952,271.051,408.232,271.051,406.588z
	 M327.072,431.464c0-2.57,2.056-4.626,4.625-4.626c2.57,0,4.626,2.056,4.626,4.626c0,2.569-2.056,4.625-4.626,4.625
	C329.128,436.089,327.072,434.033,327.072,431.464z"/>
</svg>
