<?xml version="1.0" encoding="iso-8859-1"?>
<!-- Generator: Adobe Illustrator 16.0.0, SVG Export Plug-In . SVG Version: 6.00 Build 0)  -->
<!DOCTYPE svg PUBLIC "-//W3C//DTD SVG 1.1//EN" "http://www.w3.org/Graphics/SVG/1.1/DTD/svg11.dtd">
<svg version="1.1" xmlns="http://www.w3.org/2000/svg" xmlns:xlink="http://www.w3.org/1999/xlink" x="0px" y="0px"
	 width="26.944px" height="19.884px" viewBox="0 0 26.944 19.884" style="enable-background:new 0 0 26.944 19.884;"
	 xml:space="preserve">
<g id="left">
	<path d="M0,9.923c0,0.432,0.217,0.832,0.585,1.057l14.268,8.686c0.381,0.232,0.993,0.241,1.384,0.021
		C16.625,19.468,17,19.056,17,18.608v-2.695c0-0.539,0.25-1.047,0.686-1.365s0.993-0.409,1.507-0.246
		c2.636,0.841,4.78,2.773,5.903,5.269c0.085,0.19,0.273,0.313,0.481,0.313c0.209,0.002,0.397-0.119,0.484-0.309
		c0.564-1.228,0.884-2.59,0.884-4.029c0-4.822-3.759-8.821-8.418-9.579C17.642,5.823,17,5.062,17,4.165V1.237
		c0-0.447-0.377-0.859-0.768-1.079c-0.389-0.219-0.935-0.21-1.316,0.021L0.611,8.866C0.243,9.091,0,9.491,0,9.923z M17,5.848V5.842
		C17,5.844,17,5.846,17,5.848z"/>
</g>
<g id="Layer_1">
</g>
</svg>
